solid OpenSCAD_Model
  facet normal 0 -1 0
    outer loop
      vertex -25 -43.3013 0
      vertex 25 -43.3013 25
      vertex -25 -43.3013 25
    endloop
  endfacet
  facet normal 0 -1 -0
    outer loop
      vertex 25 -43.3013 25
      vertex -25 -43.3013 0
      vertex 25 -43.3013 0
    endloop
  endfacet
  facet normal 0.866026 -0.5 0
    outer loop
      vertex 25 -43.3013 25
      vertex 50 0 0
      vertex 50 0 25
    endloop
  endfacet
  facet normal 0.866026 -0.5 0
    outer loop
      vertex 50 0 0
      vertex 25 -43.3013 25
      vertex 25 -43.3013 0
    endloop
  endfacet
  facet normal 0 1 -0
    outer loop
      vertex 25 43.3013 0
      vertex -25 43.3013 25
      vertex 25 43.3013 25
    endloop
  endfacet
  facet normal 0 1 0
    outer loop
      vertex -25 43.3013 25
      vertex 25 43.3013 0
      vertex -25 43.3013 0
    endloop
  endfacet
  facet normal 0.866026 0.5 0
    outer loop
      vertex 50 0 25
      vertex 25 43.3013 0
      vertex 25 43.3013 25
    endloop
  endfacet
  facet normal 0.866026 0.5 0
    outer loop
      vertex 25 43.3013 0
      vertex 50 0 25
      vertex 50 0 0
    endloop
  endfacet
  facet normal -0.866026 0.5 0
    outer loop
      vertex -50 0 0
      vertex -25 43.3013 25
      vertex -25 43.3013 0
    endloop
  endfacet
  facet normal -0.866026 0.5 0
    outer loop
      vertex -25 43.3013 25
      vertex -50 0 0
      vertex -50 0 25
    endloop
  endfacet
  facet normal -0.866026 -0.5 0
    outer loop
      vertex -25 -43.3013 0
      vertex -50 0 25
      vertex -50 0 0
    endloop
  endfacet
  facet normal -0.866026 -0.5 0
    outer loop
      vertex -50 0 25
      vertex -25 -43.3013 0
      vertex -25 -43.3013 25
    endloop
  endfacet
  facet normal 0 0 1
    outer loop
      vertex 25 43.3013 25
      vertex 48 0 25
      vertex 50 0 25
    endloop
  endfacet
  facet normal 0 0 1
    outer loop
      vertex 25 43.3013 25
      vertex 24 41.5692 25
      vertex 48 0 25
    endloop
  endfacet
  facet normal 0 0 1
    outer loop
      vertex 25 43.3013 25
      vertex -24 41.5692 25
      vertex 24 41.5692 25
    endloop
  endfacet
  facet normal -0 0 1
    outer loop
      vertex -25 43.3013 25
      vertex -24 41.5692 25
      vertex 25 43.3013 25
    endloop
  endfacet
  facet normal 0 0 1
    outer loop
      vertex -25 43.3013 25
      vertex -48 0 25
      vertex -24 41.5692 25
    endloop
  endfacet
  facet normal 0 -0 1
    outer loop
      vertex -48 0 25
      vertex -25 43.3013 25
      vertex -50 0 25
    endloop
  endfacet
  facet normal -0 0 1
    outer loop
      vertex 48 0 25
      vertex 25 -43.3013 25
      vertex 50 0 25
    endloop
  endfacet
  facet normal -0 0 1
    outer loop
      vertex 24 -41.5692 25
      vertex 25 -43.3013 25
      vertex 48 0 25
    endloop
  endfacet
  facet normal -0 0 1
    outer loop
      vertex -24 -41.5692 25
      vertex 25 -43.3013 25
      vertex 24 -41.5692 25
    endloop
  endfacet
  facet normal 0 0 1
    outer loop
      vertex -24 -41.5692 25
      vertex -25 -43.3013 25
      vertex 25 -43.3013 25
    endloop
  endfacet
  facet normal 0 0 1
    outer loop
      vertex -48 0 25
      vertex -25 -43.3013 25
      vertex -24 -41.5692 25
    endloop
  endfacet
  facet normal 0 0 1
    outer loop
      vertex -25 -43.3013 25
      vertex -48 0 25
      vertex -50 0 25
    endloop
  endfacet
  facet normal 0 0 -1
    outer loop
      vertex 25 -43.3013 0
      vertex 25 43.3013 0
      vertex 50 0 0
    endloop
  endfacet
  facet normal 0 0 -1
    outer loop
      vertex -25 -43.3013 0
      vertex 25 43.3013 0
      vertex 25 -43.3013 0
    endloop
  endfacet
  facet normal 0 0 -1
    outer loop
      vertex -25 -43.3013 0
      vertex -25 43.3013 0
      vertex 25 43.3013 0
    endloop
  endfacet
  facet normal 0 -0 -1
    outer loop
      vertex -25 43.3013 0
      vertex -25 -43.3013 0
      vertex -50 0 0
    endloop
  endfacet
  facet normal 0 1 -0
    outer loop
      vertex 24 -41.5692 2
      vertex -24 -41.5692 25
      vertex 24 -41.5692 25
    endloop
  endfacet
  facet normal 0 1 0
    outer loop
      vertex -24 -41.5692 25
      vertex 24 -41.5692 2
      vertex -24 -41.5692 2
    endloop
  endfacet
  facet normal -0.866025 0.5 0
    outer loop
      vertex 24 -41.5692 2
      vertex 48 0 25
      vertex 48 0 2
    endloop
  endfacet
  facet normal -0.866025 0.5 0
    outer loop
      vertex 48 0 25
      vertex 24 -41.5692 2
      vertex 24 -41.5692 25
    endloop
  endfacet
  facet normal 0 -1 0
    outer loop
      vertex -24 41.5692 2
      vertex 24 41.5692 25
      vertex -24 41.5692 25
    endloop
  endfacet
  facet normal 0 -1 -0
    outer loop
      vertex 24 41.5692 25
      vertex -24 41.5692 2
      vertex 24 41.5692 2
    endloop
  endfacet
  facet normal -0.866025 -0.5 0
    outer loop
      vertex 48 0 2
      vertex 24 41.5692 25
      vertex 24 41.5692 2
    endloop
  endfacet
  facet normal -0.866025 -0.5 0
    outer loop
      vertex 24 41.5692 25
      vertex 48 0 2
      vertex 48 0 25
    endloop
  endfacet
  facet normal 0.866025 -0.5 0
    outer loop
      vertex -48 0 25
      vertex -24 41.5692 2
      vertex -24 41.5692 25
    endloop
  endfacet
  facet normal 0.866025 -0.5 0
    outer loop
      vertex -24 41.5692 2
      vertex -48 0 25
      vertex -48 0 2
    endloop
  endfacet
  facet normal 0.866025 0.5 0
    outer loop
      vertex -24 -41.5692 25
      vertex -48 0 2
      vertex -48 0 25
    endloop
  endfacet
  facet normal 0.866025 0.5 0
    outer loop
      vertex -48 0 2
      vertex -24 -41.5692 25
      vertex -24 -41.5692 2
    endloop
  endfacet
  facet normal 0 0 1
    outer loop
      vertex 24 41.5692 2
      vertex 24 -41.5692 2
      vertex 48 0 2
    endloop
  endfacet
  facet normal -0 0 1
    outer loop
      vertex -24 41.5692 2
      vertex 24 -41.5692 2
      vertex 24 41.5692 2
    endloop
  endfacet
  facet normal 0 0 1
    outer loop
      vertex -24 41.5692 2
      vertex -24 -41.5692 2
      vertex 24 -41.5692 2
    endloop
  endfacet
  facet normal 0 -0 1
    outer loop
      vertex -24 -41.5692 2
      vertex -24 41.5692 2
      vertex -48 0 2
    endloop
  endfacet
endsolid OpenSCAD_Model
