solid OpenSCAD_Model
  facet normal 0 -1 0
    outer loop
      vertex -50 -86.6025 -22.5
      vertex 50 -86.6025 22.5
      vertex -50 -86.6025 22.5
    endloop
  endfacet
  facet normal 0 -1 -0
    outer loop
      vertex 50 -86.6025 22.5
      vertex -50 -86.6025 -22.5
      vertex 50 -86.6025 -22.5
    endloop
  endfacet
  facet normal 0.866025 -0.5 0
    outer loop
      vertex 50 -86.6025 22.5
      vertex 100 0 -22.5
      vertex 100 0 22.5
    endloop
  endfacet
  facet normal 0.866025 -0.5 0
    outer loop
      vertex 100 0 -22.5
      vertex 50 -86.6025 22.5
      vertex 50 -86.6025 -22.5
    endloop
  endfacet
  facet normal 0 1 -0
    outer loop
      vertex 50 86.6025 -22.5
      vertex -50 86.6025 22.5
      vertex 50 86.6025 22.5
    endloop
  endfacet
  facet normal 0 1 0
    outer loop
      vertex -50 86.6025 22.5
      vertex 50 86.6025 -22.5
      vertex -50 86.6025 -22.5
    endloop
  endfacet
  facet normal 0.866025 0.5 0
    outer loop
      vertex 100 0 22.5
      vertex 50 86.6025 -22.5
      vertex 50 86.6025 22.5
    endloop
  endfacet
  facet normal 0.866025 0.5 0
    outer loop
      vertex 50 86.6025 -22.5
      vertex 100 0 22.5
      vertex 100 0 -22.5
    endloop
  endfacet
  facet normal -0.866025 0.5 0
    outer loop
      vertex -100 0 -22.5
      vertex -50 86.6025 22.5
      vertex -50 86.6025 -22.5
    endloop
  endfacet
  facet normal -0.866025 0.5 0
    outer loop
      vertex -50 86.6025 22.5
      vertex -100 0 -22.5
      vertex -100 0 22.5
    endloop
  endfacet
  facet normal -0.866025 -0.5 0
    outer loop
      vertex -50 -86.6025 -22.5
      vertex -100 0 22.5
      vertex -100 0 -22.5
    endloop
  endfacet
  facet normal -0.866025 -0.5 0
    outer loop
      vertex -100 0 22.5
      vertex -50 -86.6025 -22.5
      vertex -50 -86.6025 22.5
    endloop
  endfacet
  facet normal 0 0 1
    outer loop
      vertex 50 86.6025 22.5
      vertex 98 0 22.5
      vertex 100 0 22.5
    endloop
  endfacet
  facet normal 0 0 1
    outer loop
      vertex 50 86.6025 22.5
      vertex 49 84.8705 22.5
      vertex 98 0 22.5
    endloop
  endfacet
  facet normal 0 0 1
    outer loop
      vertex 50 86.6025 22.5
      vertex -49 84.8705 22.5
      vertex 49 84.8705 22.5
    endloop
  endfacet
  facet normal -0 0 1
    outer loop
      vertex -50 86.6025 22.5
      vertex -49 84.8705 22.5
      vertex 50 86.6025 22.5
    endloop
  endfacet
  facet normal 0 0 1
    outer loop
      vertex -50 86.6025 22.5
      vertex -98 0 22.5
      vertex -49 84.8705 22.5
    endloop
  endfacet
  facet normal 0 -0 1
    outer loop
      vertex -98 0 22.5
      vertex -50 86.6025 22.5
      vertex -100 0 22.5
    endloop
  endfacet
  facet normal -0 0 1
    outer loop
      vertex 98 0 22.5
      vertex 50 -86.6025 22.5
      vertex 100 0 22.5
    endloop
  endfacet
  facet normal -0 0 1
    outer loop
      vertex 49 -84.8705 22.5
      vertex 50 -86.6025 22.5
      vertex 98 0 22.5
    endloop
  endfacet
  facet normal -0 0 1
    outer loop
      vertex -49 -84.8705 22.5
      vertex 50 -86.6025 22.5
      vertex 49 -84.8705 22.5
    endloop
  endfacet
  facet normal 0 0 1
    outer loop
      vertex -49 -84.8705 22.5
      vertex -50 -86.6025 22.5
      vertex 50 -86.6025 22.5
    endloop
  endfacet
  facet normal 0 0 1
    outer loop
      vertex -98 0 22.5
      vertex -50 -86.6025 22.5
      vertex -49 -84.8705 22.5
    endloop
  endfacet
  facet normal 0 0 1
    outer loop
      vertex -50 -86.6025 22.5
      vertex -98 0 22.5
      vertex -100 0 22.5
    endloop
  endfacet
  facet normal 0 0 -1
    outer loop
      vertex 50 -86.6025 -22.5
      vertex 98 0 -22.5
      vertex 100 0 -22.5
    endloop
  endfacet
  facet normal 0 0 -1
    outer loop
      vertex 50 -86.6025 -22.5
      vertex 49 -84.8705 -22.5
      vertex 98 0 -22.5
    endloop
  endfacet
  facet normal 0 0 -1
    outer loop
      vertex 50 -86.6025 -22.5
      vertex -49 -84.8705 -22.5
      vertex 49 -84.8705 -22.5
    endloop
  endfacet
  facet normal 0 0 -1
    outer loop
      vertex -50 -86.6025 -22.5
      vertex -49 -84.8705 -22.5
      vertex 50 -86.6025 -22.5
    endloop
  endfacet
  facet normal 0 0 -1
    outer loop
      vertex -50 -86.6025 -22.5
      vertex -98 0 -22.5
      vertex -49 -84.8705 -22.5
    endloop
  endfacet
  facet normal -0 -0 -1
    outer loop
      vertex -98 0 -22.5
      vertex -50 -86.6025 -22.5
      vertex -100 0 -22.5
    endloop
  endfacet
  facet normal 0 0 -1
    outer loop
      vertex 98 0 -22.5
      vertex 50 86.6025 -22.5
      vertex 100 0 -22.5
    endloop
  endfacet
  facet normal 0 0 -1
    outer loop
      vertex 49 84.8705 -22.5
      vertex 50 86.6025 -22.5
      vertex 98 0 -22.5
    endloop
  endfacet
  facet normal 0 0 -1
    outer loop
      vertex -49 84.8705 -22.5
      vertex 50 86.6025 -22.5
      vertex 49 84.8705 -22.5
    endloop
  endfacet
  facet normal 0 0 -1
    outer loop
      vertex -49 84.8705 -22.5
      vertex -50 86.6025 -22.5
      vertex 50 86.6025 -22.5
    endloop
  endfacet
  facet normal 0 0 -1
    outer loop
      vertex -98 0 -22.5
      vertex -50 86.6025 -22.5
      vertex -49 84.8705 -22.5
    endloop
  endfacet
  facet normal 0 0 -1
    outer loop
      vertex -50 86.6025 -22.5
      vertex -98 0 -22.5
      vertex -100 0 -22.5
    endloop
  endfacet
  facet normal 0 1 -0
    outer loop
      vertex 49 -84.8705 -17.5
      vertex -49 -84.8705 22.5
      vertex 49 -84.8705 22.5
    endloop
  endfacet
  facet normal 0 1 0
    outer loop
      vertex -49 -84.8705 22.5
      vertex 49 -84.8705 -17.5
      vertex -49 -84.8705 -17.5
    endloop
  endfacet
  facet normal -0.866025 0.5 0
    outer loop
      vertex 49 -84.8705 -17.5
      vertex 98 0 22.5
      vertex 98 0 -17.5
    endloop
  endfacet
  facet normal -0.866025 0.5 0
    outer loop
      vertex 98 0 22.5
      vertex 49 -84.8705 -17.5
      vertex 49 -84.8705 22.5
    endloop
  endfacet
  facet normal 0 -1 0
    outer loop
      vertex -49 84.8705 -17.5
      vertex 49 84.8705 22.5
      vertex -49 84.8705 22.5
    endloop
  endfacet
  facet normal 0 -1 -0
    outer loop
      vertex 49 84.8705 22.5
      vertex -49 84.8705 -17.5
      vertex 49 84.8705 -17.5
    endloop
  endfacet
  facet normal -0.866025 -0.5 0
    outer loop
      vertex 98 0 -17.5
      vertex 49 84.8705 22.5
      vertex 49 84.8705 -17.5
    endloop
  endfacet
  facet normal -0.866025 -0.5 0
    outer loop
      vertex 49 84.8705 22.5
      vertex 98 0 -17.5
      vertex 98 0 22.5
    endloop
  endfacet
  facet normal 0.866025 -0.5 0
    outer loop
      vertex -98 0 22.5
      vertex -49 84.8705 -17.5
      vertex -49 84.8705 22.5
    endloop
  endfacet
  facet normal 0.866025 -0.5 0
    outer loop
      vertex -49 84.8705 -17.5
      vertex -98 0 22.5
      vertex -98 0 -17.5
    endloop
  endfacet
  facet normal 0.866025 0.5 0
    outer loop
      vertex -49 -84.8705 22.5
      vertex -98 0 -17.5
      vertex -98 0 22.5
    endloop
  endfacet
  facet normal 0.866025 0.5 0
    outer loop
      vertex -98 0 -17.5
      vertex -49 -84.8705 22.5
      vertex -49 -84.8705 -17.5
    endloop
  endfacet
  facet normal 0 -1 0
    outer loop
      vertex -49 -84.8705 -27.5
      vertex 49 -84.8705 -22.5
      vertex -49 -84.8705 -22.5
    endloop
  endfacet
  facet normal 0 -1 -0
    outer loop
      vertex 49 -84.8705 -22.5
      vertex -49 -84.8705 -27.5
      vertex 49 -84.8705 -27.5
    endloop
  endfacet
  facet normal 0.866025 -0.5 0
    outer loop
      vertex 49 -84.8705 -22.5
      vertex 98 0 -27.5
      vertex 98 0 -22.5
    endloop
  endfacet
  facet normal 0.866025 -0.5 0
    outer loop
      vertex 98 0 -27.5
      vertex 49 -84.8705 -22.5
      vertex 49 -84.8705 -27.5
    endloop
  endfacet
  facet normal 0 1 -0
    outer loop
      vertex 49 84.8705 -27.5
      vertex -49 84.8705 -22.5
      vertex 49 84.8705 -22.5
    endloop
  endfacet
  facet normal 0 1 0
    outer loop
      vertex -49 84.8705 -22.5
      vertex 49 84.8705 -27.5
      vertex -49 84.8705 -27.5
    endloop
  endfacet
  facet normal 0.866025 0.5 0
    outer loop
      vertex 98 0 -22.5
      vertex 49 84.8705 -27.5
      vertex 49 84.8705 -22.5
    endloop
  endfacet
  facet normal 0.866025 0.5 0
    outer loop
      vertex 49 84.8705 -27.5
      vertex 98 0 -22.5
      vertex 98 0 -27.5
    endloop
  endfacet
  facet normal -0.866025 0.5 0
    outer loop
      vertex -98 0 -27.5
      vertex -49 84.8705 -22.5
      vertex -49 84.8705 -27.5
    endloop
  endfacet
  facet normal -0.866025 0.5 0
    outer loop
      vertex -49 84.8705 -22.5
      vertex -98 0 -27.5
      vertex -98 0 -22.5
    endloop
  endfacet
  facet normal -0.866025 -0.5 0
    outer loop
      vertex -49 -84.8705 -27.5
      vertex -98 0 -22.5
      vertex -98 0 -27.5
    endloop
  endfacet
  facet normal -0.866025 -0.5 0
    outer loop
      vertex -98 0 -22.5
      vertex -49 -84.8705 -27.5
      vertex -49 -84.8705 -22.5
    endloop
  endfacet
  facet normal 0 0 -1
    outer loop
      vertex -7.00596 2.65249 -27.5
      vertex -2.99404 2.65249 -27.5
      vertex -6.11623 0.957262 -27.5
    endloop
  endfacet
  facet normal 0 0 -1
    outer loop
      vertex -2.99404 2.65249 -27.5
      vertex -7.00596 2.65249 -27.5
      vertex -5.8001 4.74109 -27.5
    endloop
  endfacet
  facet normal 0 0 -1
    outer loop
      vertex -7.00596 2.65249 -27.5
      vertex -7.52978 5.56183 -27.5
      vertex -5.8001 4.74109 -27.5
    endloop
  endfacet
  facet normal 0 0 -1
    outer loop
      vertex -8.58158 3.74006 -27.5
      vertex -7.52978 5.56183 -27.5
      vertex -7.00596 2.65249 -27.5
    endloop
  endfacet
  facet normal 0 0 -1
    outer loop
      vertex -8.58158 3.74006 -27.5
      vertex -8.67992 7.09239 -27.5
      vertex -7.52978 5.56183 -27.5
    endloop
  endfacet
  facet normal 0 0 -1
    outer loop
      vertex -10.4821 3.97083 -27.5
      vertex -8.67992 7.09239 -27.5
      vertex -8.58158 3.74006 -27.5
    endloop
  endfacet
  facet normal -0 0 -1
    outer loop
      vertex -8.67992 7.09239 -27.5
      vertex -10.4821 3.97083 -27.5
      vertex -8.98703 8.98212 -27.5
    endloop
  endfacet
  facet normal 0 0 -1
    outer loop
      vertex 1.20585 7.39358 -27.5
      vertex -1.20585 7.39358 -27.5
      vertex -1.0518 9.3019 -27.5
    endloop
  endfacet
  facet normal 0 0 -1
    outer loop
      vertex -2.2291 5.77544 -27.5
      vertex 0.482146 3.97083 -27.5
      vertex -1.41842 3.74006 -27.5
    endloop
  endfacet
  facet normal 0 0 -1
    outer loop
      vertex 0.482146 3.97083 -27.5
      vertex -2.2291 5.77544 -27.5
      vertex -1.20585 7.39358 -27.5
    endloop
  endfacet
  facet normal 0 0 -1
    outer loop
      vertex -3.88713 4.81818 -27.5
      vertex -1.41842 3.74006 -27.5
      vertex -2.99404 2.65249 -27.5
    endloop
  endfacet
  facet normal 0 0 -1
    outer loop
      vertex -6.11623 0.957262 -27.5
      vertex -2.99404 2.65249 -27.5
      vertex -3.88377 0.957262 -27.5
    endloop
  endfacet
  facet normal 0 0 -1
    outer loop
      vertex -1.41842 3.74006 -27.5
      vertex -3.88713 4.81818 -27.5
      vertex -2.2291 5.77544 -27.5
    endloop
  endfacet
  facet normal 0 0 -1
    outer loop
      vertex -3.88377 -0.957262 -27.5
      vertex -6.11623 -0.957262 -27.5
      vertex -3.88377 0.957262 -27.5
    endloop
  endfacet
  facet normal 0 0 -1
    outer loop
      vertex -6.11623 -0.957262 -27.5
      vertex -3.88713 -4.81818 -27.5
      vertex -5.8001 -4.74109 -27.5
    endloop
  endfacet
  facet normal 0 0 -1
    outer loop
      vertex -6.11623 0.957262 -27.5
      vertex -3.88377 0.957262 -27.5
      vertex -6.11623 -0.957262 -27.5
    endloop
  endfacet
  facet normal 0 0 -1
    outer loop
      vertex -2.99404 2.65249 -27.5
      vertex -5.8001 4.74109 -27.5
      vertex -3.88713 4.81818 -27.5
    endloop
  endfacet
  facet normal 0 0 -1
    outer loop
      vertex -5.8001 -4.74109 -27.5
      vertex -7.00596 -2.65249 -27.5
      vertex -6.11623 -0.957262 -27.5
    endloop
  endfacet
  facet normal 0 0 -1
    outer loop
      vertex -7.52978 -5.56183 -27.5
      vertex -7.00596 -2.65249 -27.5
      vertex -5.8001 -4.74109 -27.5
    endloop
  endfacet
  facet normal 0 0 -1
    outer loop
      vertex -7.52978 -5.56183 -27.5
      vertex -8.58158 -3.74006 -27.5
      vertex -7.00596 -2.65249 -27.5
    endloop
  endfacet
  facet normal 0 0 -1
    outer loop
      vertex -8.67992 -7.09239 -27.5
      vertex -8.58158 -3.74006 -27.5
      vertex -7.52978 -5.56183 -27.5
    endloop
  endfacet
  facet normal 0 0 -1
    outer loop
      vertex -10.4821 -3.97083 -27.5
      vertex -8.67992 -7.09239 -27.5
      vertex -8.98703 -8.98212 -27.5
    endloop
  endfacet
  facet normal 0 0 -1
    outer loop
      vertex -8.67992 -7.09239 -27.5
      vertex -10.4821 -3.97083 -27.5
      vertex -8.58158 -3.74006 -27.5
    endloop
  endfacet
  facet normal 0 0 -1
    outer loop
      vertex 1.20585 -7.39358 -27.5
      vertex -1.20585 -7.39358 -27.5
      vertex 0.482146 -3.97083 -27.5
    endloop
  endfacet
  facet normal 0 0 -1
    outer loop
      vertex -2.2291 -5.77544 -27.5
      vertex 0.482146 -3.97083 -27.5
      vertex -1.20585 -7.39358 -27.5
    endloop
  endfacet
  facet normal -0 0 -1
    outer loop
      vertex 0.482146 -3.97083 -27.5
      vertex -2.2291 -5.77544 -27.5
      vertex -1.41842 -3.74006 -27.5
    endloop
  endfacet
  facet normal 0 0 -1
    outer loop
      vertex -3.88713 -4.81818 -27.5
      vertex -1.41842 -3.74006 -27.5
      vertex -2.2291 -5.77544 -27.5
    endloop
  endfacet
  facet normal -0 0 -1
    outer loop
      vertex -1.41842 -3.74006 -27.5
      vertex -3.88713 -4.81818 -27.5
      vertex -2.99404 -2.65249 -27.5
    endloop
  endfacet
  facet normal 0 0 -1
    outer loop
      vertex -2.99404 -2.65249 -27.5
      vertex -6.11623 -0.957262 -27.5
      vertex -3.88377 -0.957262 -27.5
    endloop
  endfacet
  facet normal 0 0 -1
    outer loop
      vertex -6.11623 -0.957262 -27.5
      vertex -2.99404 -2.65249 -27.5
      vertex -3.88713 -4.81818 -27.5
    endloop
  endfacet
  facet normal 0 0 -1
    outer loop
      vertex 6.11623 0.957262 -27.5
      vertex 3.88713 4.81818 -27.5
      vertex 5.8001 4.74109 -27.5
    endloop
  endfacet
  facet normal 0 0 -1
    outer loop
      vertex 6.11623 0.957262 -27.5
      vertex 3.54182 1.85889 -27.5
      vertex 3.88713 4.81818 -27.5
    endloop
  endfacet
  facet normal 0 0 -1
    outer loop
      vertex 2.27226 3.29193 -27.5
      vertex 3.88713 4.81818 -27.5
      vertex 3.54182 1.85889 -27.5
    endloop
  endfacet
  facet normal 0 0 -1
    outer loop
      vertex 2.27226 3.29193 -27.5
      vertex 2.2291 5.77544 -27.5
      vertex 3.88713 4.81818 -27.5
    endloop
  endfacet
  facet normal 0 0 -1
    outer loop
      vertex 0.482146 3.97083 -27.5
      vertex 2.2291 5.77544 -27.5
      vertex 2.27226 3.29193 -27.5
    endloop
  endfacet
  facet normal 0 0 -1
    outer loop
      vertex -1.20585 7.39358 -27.5
      vertex 1.20585 7.39358 -27.5
      vertex 0.482146 3.97083 -27.5
    endloop
  endfacet
  facet normal -0 0 -1
    outer loop
      vertex 2.2291 5.77544 -27.5
      vertex 0.482146 3.97083 -27.5
      vertex 1.20585 7.39358 -27.5
    endloop
  endfacet
  facet normal 0 0 -1
    outer loop
      vertex 10.4821 3.97083 -27.5
      vertex 8.67992 7.09239 -27.5
      vertex 8.98703 8.98212 -27.5
    endloop
  endfacet
  facet normal 0 0 -1
    outer loop
      vertex 8.58158 3.74006 -27.5
      vertex 8.67992 7.09239 -27.5
      vertex 10.4821 3.97083 -27.5
    endloop
  endfacet
  facet normal 0 0 -1
    outer loop
      vertex 8.58158 3.74006 -27.5
      vertex 7.52978 5.56183 -27.5
      vertex 8.67992 7.09239 -27.5
    endloop
  endfacet
  facet normal 0 0 -1
    outer loop
      vertex 7.00596 2.65249 -27.5
      vertex 7.52978 5.56183 -27.5
      vertex 8.58158 3.74006 -27.5
    endloop
  endfacet
  facet normal 0 0 -1
    outer loop
      vertex 5.8001 4.74109 -27.5
      vertex 7.00596 2.65249 -27.5
      vertex 6.11623 0.957262 -27.5
    endloop
  endfacet
  facet normal 0 0 -1
    outer loop
      vertex 7.00596 2.65249 -27.5
      vertex 5.8001 4.74109 -27.5
      vertex 7.52978 5.56183 -27.5
    endloop
  endfacet
  facet normal 0 -0 -1
    outer loop
      vertex 4 0 -27.5
      vertex 6.11623 -0.957262 -27.5
      vertex 3.54182 -1.85889 -27.5
    endloop
  endfacet
  facet normal 0 0 -1
    outer loop
      vertex 3.54182 1.85889 -27.5
      vertex 6.11623 0.957262 -27.5
      vertex 4 0 -27.5
    endloop
  endfacet
  facet normal 0 0 -1
    outer loop
      vertex 3.54182 -1.85889 -27.5
      vertex 5.8001 -4.74109 -27.5
      vertex 3.88713 -4.81818 -27.5
    endloop
  endfacet
  facet normal 0 0 -1
    outer loop
      vertex 6.11623 -0.957262 -27.5
      vertex 4 0 -27.5
      vertex 6.11623 0.957262 -27.5
    endloop
  endfacet
  facet normal 0 0 -1
    outer loop
      vertex 3.88713 -4.81818 -27.5
      vertex 2.27226 -3.29193 -27.5
      vertex 3.54182 -1.85889 -27.5
    endloop
  endfacet
  facet normal 0 0 -1
    outer loop
      vertex 2.2291 -5.77544 -27.5
      vertex 2.27226 -3.29193 -27.5
      vertex 3.88713 -4.81818 -27.5
    endloop
  endfacet
  facet normal 0 0 -1
    outer loop
      vertex 0.482146 -3.97083 -27.5
      vertex 2.2291 -5.77544 -27.5
      vertex 1.20585 -7.39358 -27.5
    endloop
  endfacet
  facet normal 0 0 -1
    outer loop
      vertex 2.2291 -5.77544 -27.5
      vertex 0.482146 -3.97083 -27.5
      vertex 2.27226 -3.29193 -27.5
    endloop
  endfacet
  facet normal 0 0 -1
    outer loop
      vertex -1.0518 -9.3019 -27.5
      vertex 1.20585 -7.39358 -27.5
      vertex 1.0518 -9.3019 -27.5
    endloop
  endfacet
  facet normal 0 0 -1
    outer loop
      vertex 13.5418 -1.85889 -27.5
      vertex 98 0 -27.5
      vertex 49 -84.8705 -27.5
    endloop
  endfacet
  facet normal 0 0 -1
    outer loop
      vertex 13.5418 1.85889 -27.5
      vertex 98 0 -27.5
      vertex 14 0 -27.5
    endloop
  endfacet
  facet normal -0 0 -1
    outer loop
      vertex 98 0 -27.5
      vertex 13.5418 -1.85889 -27.5
      vertex 14 0 -27.5
    endloop
  endfacet
  facet normal 0 0 -1
    outer loop
      vertex 8.38076 -10.7981 -27.5
      vertex 13.5418 -1.85889 -27.5
      vertex 49 -84.8705 -27.5
    endloop
  endfacet
  facet normal 0 0 -1
    outer loop
      vertex 13.5418 -1.85889 -27.5
      vertex 8.38076 -10.7981 -27.5
      vertex 12.2723 -3.29193 -27.5
    endloop
  endfacet
  facet normal 0 0 -1
    outer loop
      vertex 12.2723 -3.29193 -27.5
      vertex 8.98703 -8.98212 -27.5
      vertex 10.4821 -3.97083 -27.5
    endloop
  endfacet
  facet normal 0 0 -1
    outer loop
      vertex 12.2723 -3.29193 -27.5
      vertex 8.38076 -10.7981 -27.5
      vertex 8.98703 -8.98212 -27.5
    endloop
  endfacet
  facet normal 0 0 -1
    outer loop
      vertex 49 -84.8705 -27.5
      vertex 7 -12.1244 -27.5
      vertex 8.38076 -10.7981 -27.5
    endloop
  endfacet
  facet normal 0 0 -1
    outer loop
      vertex 49 -84.8705 -27.5
      vertex 5.16106 -12.657 -27.5
      vertex 7 -12.1244 -27.5
    endloop
  endfacet
  facet normal 0 0 -1
    outer loop
      vertex -5.16106 -12.657 -27.5
      vertex 5.16106 -12.657 -27.5
      vertex 49 -84.8705 -27.5
    endloop
  endfacet
  facet normal 0 0 -1
    outer loop
      vertex 5.16106 -12.657 -27.5
      vertex -5.16106 -12.657 -27.5
      vertex 3.28523 -12.2741 -27.5
    endloop
  endfacet
  facet normal 0 0 -1
    outer loop
      vertex -1.20585 -7.39358 -27.5
      vertex 1.20585 -7.39358 -27.5
      vertex -1.0518 -9.3019 -27.5
    endloop
  endfacet
  facet normal 0 0 -1
    outer loop
      vertex 1.80223 -11.0632 -27.5
      vertex -1.0518 -9.3019 -27.5
      vertex 1.0518 -9.3019 -27.5
    endloop
  endfacet
  facet normal 0 0 -1
    outer loop
      vertex 3.28523 -12.2741 -27.5
      vertex -3.28523 -12.2741 -27.5
      vertex 1.80223 -11.0632 -27.5
    endloop
  endfacet
  facet normal 0 0 -1
    outer loop
      vertex 1.80223 -11.0632 -27.5
      vertex -1.80223 -11.0632 -27.5
      vertex -1.0518 -9.3019 -27.5
    endloop
  endfacet
  facet normal -0 0 -1
    outer loop
      vertex 1.80223 -11.0632 -27.5
      vertex -3.28523 -12.2741 -27.5
      vertex -1.80223 -11.0632 -27.5
    endloop
  endfacet
  facet normal -0 0 -1
    outer loop
      vertex 3.28523 -12.2741 -27.5
      vertex -5.16106 -12.657 -27.5
      vertex -3.28523 -12.2741 -27.5
    endloop
  endfacet
  facet normal 0 0 -1
    outer loop
      vertex -49 -84.8705 -27.5
      vertex -5.16106 -12.657 -27.5
      vertex 49 -84.8705 -27.5
    endloop
  endfacet
  facet normal -0 0 -1
    outer loop
      vertex -5.16106 -12.657 -27.5
      vertex -49 -84.8705 -27.5
      vertex -7 -12.1244 -27.5
    endloop
  endfacet
  facet normal 0 0 -1
    outer loop
      vertex -8.98703 -8.98212 -27.5
      vertex -12.2723 -3.29193 -27.5
      vertex -10.4821 -3.97083 -27.5
    endloop
  endfacet
  facet normal 0 0 -1
    outer loop
      vertex -8.38076 -10.7981 -27.5
      vertex -12.2723 -3.29193 -27.5
      vertex -8.98703 -8.98212 -27.5
    endloop
  endfacet
  facet normal 0 0 -1
    outer loop
      vertex -8.38076 -10.7981 -27.5
      vertex -13.5418 -1.85889 -27.5
      vertex -12.2723 -3.29193 -27.5
    endloop
  endfacet
  facet normal 0 0 -1
    outer loop
      vertex -98 0 -27.5
      vertex -13.5418 -1.85889 -27.5
      vertex -49 -84.8705 -27.5
    endloop
  endfacet
  facet normal -0 0 -1
    outer loop
      vertex -8.38076 -10.7981 -27.5
      vertex -49 -84.8705 -27.5
      vertex -13.5418 -1.85889 -27.5
    endloop
  endfacet
  facet normal -0 0 -1
    outer loop
      vertex -7 -12.1244 -27.5
      vertex -49 -84.8705 -27.5
      vertex -8.38076 -10.7981 -27.5
    endloop
  endfacet
  facet normal 0 0 -1
    outer loop
      vertex 98 0 -27.5
      vertex 13.5418 1.85889 -27.5
      vertex 49 84.8705 -27.5
    endloop
  endfacet
  facet normal 0 0 -1
    outer loop
      vertex 8.38076 10.7981 -27.5
      vertex 13.5418 1.85889 -27.5
      vertex 12.2723 3.29193 -27.5
    endloop
  endfacet
  facet normal 0 0 -1
    outer loop
      vertex 8.98703 8.98212 -27.5
      vertex 12.2723 3.29193 -27.5
      vertex 10.4821 3.97083 -27.5
    endloop
  endfacet
  facet normal 0 0 -1
    outer loop
      vertex 8.38076 10.7981 -27.5
      vertex 12.2723 3.29193 -27.5
      vertex 8.98703 8.98212 -27.5
    endloop
  endfacet
  facet normal 0 0 -1
    outer loop
      vertex 13.5418 1.85889 -27.5
      vertex 8.38076 10.7981 -27.5
      vertex 49 84.8705 -27.5
    endloop
  endfacet
  facet normal 0 0 -1
    outer loop
      vertex 7 12.1244 -27.5
      vertex 49 84.8705 -27.5
      vertex 8.38076 10.7981 -27.5
    endloop
  endfacet
  facet normal 0 0 -1
    outer loop
      vertex 5.16106 12.657 -27.5
      vertex 49 84.8705 -27.5
      vertex 7 12.1244 -27.5
    endloop
  endfacet
  facet normal 0 0 -1
    outer loop
      vertex -5.16106 12.657 -27.5
      vertex 5.16106 12.657 -27.5
      vertex 3.28523 12.2741 -27.5
    endloop
  endfacet
  facet normal 0 0 -1
    outer loop
      vertex -3.28523 12.2741 -27.5
      vertex 3.28523 12.2741 -27.5
      vertex 1.80223 11.0632 -27.5
    endloop
  endfacet
  facet normal 0 0 -1
    outer loop
      vertex 1.20585 7.39358 -27.5
      vertex -1.0518 9.3019 -27.5
      vertex 1.0518 9.3019 -27.5
    endloop
  endfacet
  facet normal 0 0 -1
    outer loop
      vertex -1.0518 9.3019 -27.5
      vertex 1.80223 11.0632 -27.5
      vertex 1.0518 9.3019 -27.5
    endloop
  endfacet
  facet normal 0 0 -1
    outer loop
      vertex -1.80223 11.0632 -27.5
      vertex 1.80223 11.0632 -27.5
      vertex -1.0518 9.3019 -27.5
    endloop
  endfacet
  facet normal 0 0 -1
    outer loop
      vertex -3.28523 12.2741 -27.5
      vertex 1.80223 11.0632 -27.5
      vertex -1.80223 11.0632 -27.5
    endloop
  endfacet
  facet normal 0 0 -1
    outer loop
      vertex -5.16106 12.657 -27.5
      vertex 3.28523 12.2741 -27.5
      vertex -3.28523 12.2741 -27.5
    endloop
  endfacet
  facet normal 0 0 -1
    outer loop
      vertex 5.16106 12.657 -27.5
      vertex -5.16106 12.657 -27.5
      vertex 49 84.8705 -27.5
    endloop
  endfacet
  facet normal 0 0 -1
    outer loop
      vertex -49 84.8705 -27.5
      vertex -5.16106 12.657 -27.5
      vertex -7 12.1244 -27.5
    endloop
  endfacet
  facet normal 0 0 -1
    outer loop
      vertex -49 84.8705 -27.5
      vertex -7 12.1244 -27.5
      vertex -8.38076 10.7981 -27.5
    endloop
  endfacet
  facet normal 0 0 -1
    outer loop
      vertex -12.2723 3.29193 -27.5
      vertex -8.98703 8.98212 -27.5
      vertex -10.4821 3.97083 -27.5
    endloop
  endfacet
  facet normal 0 0 -1
    outer loop
      vertex -12.2723 3.29193 -27.5
      vertex -8.38076 10.7981 -27.5
      vertex -8.98703 8.98212 -27.5
    endloop
  endfacet
  facet normal 0 0 -1
    outer loop
      vertex -13.5418 1.85889 -27.5
      vertex -8.38076 10.7981 -27.5
      vertex -12.2723 3.29193 -27.5
    endloop
  endfacet
  facet normal 0 0 -1
    outer loop
      vertex -13.5418 -1.85889 -27.5
      vertex -98 0 -27.5
      vertex -14 0 -27.5
    endloop
  endfacet
  facet normal 0 0 -1
    outer loop
      vertex -5.16106 12.657 -27.5
      vertex -49 84.8705 -27.5
      vertex 49 84.8705 -27.5
    endloop
  endfacet
  facet normal 0 0 -1
    outer loop
      vertex -13.5418 1.85889 -27.5
      vertex -49 84.8705 -27.5
      vertex -8.38076 10.7981 -27.5
    endloop
  endfacet
  facet normal 0 0 -1
    outer loop
      vertex -14 0 -27.5
      vertex -98 0 -27.5
      vertex -13.5418 1.85889 -27.5
    endloop
  endfacet
  facet normal -0 0 -1
    outer loop
      vertex -13.5418 1.85889 -27.5
      vertex -98 0 -27.5
      vertex -49 84.8705 -27.5
    endloop
  endfacet
  facet normal 0 0 -1
    outer loop
      vertex 8.67992 -7.09239 -27.5
      vertex 10.4821 -3.97083 -27.5
      vertex 8.98703 -8.98212 -27.5
    endloop
  endfacet
  facet normal 0 0 -1
    outer loop
      vertex 8.67992 -7.09239 -27.5
      vertex 8.58158 -3.74006 -27.5
      vertex 10.4821 -3.97083 -27.5
    endloop
  endfacet
  facet normal 0 0 -1
    outer loop
      vertex 7.52978 -5.56183 -27.5
      vertex 8.58158 -3.74006 -27.5
      vertex 8.67992 -7.09239 -27.5
    endloop
  endfacet
  facet normal 0 0 -1
    outer loop
      vertex 7.52978 -5.56183 -27.5
      vertex 7.00596 -2.65249 -27.5
      vertex 8.58158 -3.74006 -27.5
    endloop
  endfacet
  facet normal 0 0 -1
    outer loop
      vertex 5.8001 -4.74109 -27.5
      vertex 7.00596 -2.65249 -27.5
      vertex 7.52978 -5.56183 -27.5
    endloop
  endfacet
  facet normal 0 0 -1
    outer loop
      vertex 7.00596 -2.65249 -27.5
      vertex 3.54182 -1.85889 -27.5
      vertex 6.11623 -0.957262 -27.5
    endloop
  endfacet
  facet normal 0 0 -1
    outer loop
      vertex 3.54182 -1.85889 -27.5
      vertex 7.00596 -2.65249 -27.5
      vertex 5.8001 -4.74109 -27.5
    endloop
  endfacet
  facet normal 0 0 1
    outer loop
      vertex 49 84.8705 -17.5
      vertex 92 0 -17.5
      vertex 98 0 -17.5
    endloop
  endfacet
  facet normal 0 0 1
    outer loop
      vertex 49 84.8705 -17.5
      vertex 46 79.6743 -17.5
      vertex 92 0 -17.5
    endloop
  endfacet
  facet normal 0 0 1
    outer loop
      vertex 49 84.8705 -17.5
      vertex -46 79.6743 -17.5
      vertex 46 79.6743 -17.5
    endloop
  endfacet
  facet normal -0 0 1
    outer loop
      vertex -49 84.8705 -17.5
      vertex -46 79.6743 -17.5
      vertex 49 84.8705 -17.5
    endloop
  endfacet
  facet normal 0 0 1
    outer loop
      vertex -49 84.8705 -17.5
      vertex -92 0 -17.5
      vertex -46 79.6743 -17.5
    endloop
  endfacet
  facet normal 0 -0 1
    outer loop
      vertex -92 0 -17.5
      vertex -49 84.8705 -17.5
      vertex -98 0 -17.5
    endloop
  endfacet
  facet normal -0 0 1
    outer loop
      vertex 92 0 -17.5
      vertex 49 -84.8705 -17.5
      vertex 98 0 -17.5
    endloop
  endfacet
  facet normal -0 0 1
    outer loop
      vertex 46 -79.6743 -17.5
      vertex 49 -84.8705 -17.5
      vertex 92 0 -17.5
    endloop
  endfacet
  facet normal -0 0 1
    outer loop
      vertex -46 -79.6743 -17.5
      vertex 49 -84.8705 -17.5
      vertex 46 -79.6743 -17.5
    endloop
  endfacet
  facet normal 0 0 1
    outer loop
      vertex -46 -79.6743 -17.5
      vertex -49 -84.8705 -17.5
      vertex 49 -84.8705 -17.5
    endloop
  endfacet
  facet normal 0 0 1
    outer loop
      vertex -92 0 -17.5
      vertex -49 -84.8705 -17.5
      vertex -46 -79.6743 -17.5
    endloop
  endfacet
  facet normal 0 0 1
    outer loop
      vertex -49 -84.8705 -17.5
      vertex -92 0 -17.5
      vertex -98 0 -17.5
    endloop
  endfacet
  facet normal 0 1 -0
    outer loop
      vertex 46 -79.6743 -25.5
      vertex -46 -79.6743 -17.5
      vertex 46 -79.6743 -17.5
    endloop
  endfacet
  facet normal 0 1 0
    outer loop
      vertex -46 -79.6743 -17.5
      vertex 46 -79.6743 -25.5
      vertex -46 -79.6743 -25.5
    endloop
  endfacet
  facet normal -0.866025 0.5 0
    outer loop
      vertex 46 -79.6743 -25.5
      vertex 92 0 -17.5
      vertex 92 0 -25.5
    endloop
  endfacet
  facet normal -0.866025 0.5 0
    outer loop
      vertex 92 0 -17.5
      vertex 46 -79.6743 -25.5
      vertex 46 -79.6743 -17.5
    endloop
  endfacet
  facet normal 0 -1 0
    outer loop
      vertex -46 79.6743 -25.5
      vertex 46 79.6743 -17.5
      vertex -46 79.6743 -17.5
    endloop
  endfacet
  facet normal 0 -1 -0
    outer loop
      vertex 46 79.6743 -17.5
      vertex -46 79.6743 -25.5
      vertex 46 79.6743 -25.5
    endloop
  endfacet
  facet normal -0.866025 -0.5 0
    outer loop
      vertex 92 0 -25.5
      vertex 46 79.6743 -17.5
      vertex 46 79.6743 -25.5
    endloop
  endfacet
  facet normal -0.866025 -0.5 0
    outer loop
      vertex 46 79.6743 -17.5
      vertex 92 0 -25.5
      vertex 92 0 -17.5
    endloop
  endfacet
  facet normal 0.866025 -0.5 0
    outer loop
      vertex -92 0 -17.5
      vertex -46 79.6743 -25.5
      vertex -46 79.6743 -17.5
    endloop
  endfacet
  facet normal 0.866025 -0.5 0
    outer loop
      vertex -46 79.6743 -25.5
      vertex -92 0 -17.5
      vertex -92 0 -25.5
    endloop
  endfacet
  facet normal 0.866025 0.5 0
    outer loop
      vertex -46 -79.6743 -17.5
      vertex -92 0 -25.5
      vertex -92 0 -17.5
    endloop
  endfacet
  facet normal 0.866025 0.5 0
    outer loop
      vertex -92 0 -25.5
      vertex -46 -79.6743 -17.5
      vertex -46 -79.6743 -25.5
    endloop
  endfacet
  facet normal 0 0 1
    outer loop
      vertex -7.00596 -2.65249 -25.5
      vertex -2.99404 -2.65249 -25.5
      vertex -6.11623 -0.957262 -25.5
    endloop
  endfacet
  facet normal 0 0 1
    outer loop
      vertex -2.99404 -2.65249 -25.5
      vertex -7.00596 -2.65249 -25.5
      vertex -5.8001 -4.74109 -25.5
    endloop
  endfacet
  facet normal 0 0 1
    outer loop
      vertex -7.00596 -2.65249 -25.5
      vertex -7.52978 -5.56183 -25.5
      vertex -5.8001 -4.74109 -25.5
    endloop
  endfacet
  facet normal -0 0 1
    outer loop
      vertex -8.58158 -3.74006 -25.5
      vertex -7.52978 -5.56183 -25.5
      vertex -7.00596 -2.65249 -25.5
    endloop
  endfacet
  facet normal 0 0 1
    outer loop
      vertex -8.58158 -3.74006 -25.5
      vertex -8.67992 -7.09239 -25.5
      vertex -7.52978 -5.56183 -25.5
    endloop
  endfacet
  facet normal -0 0 1
    outer loop
      vertex -10.4821 -3.97083 -25.5
      vertex -8.67992 -7.09239 -25.5
      vertex -8.58158 -3.74006 -25.5
    endloop
  endfacet
  facet normal 0 0 1
    outer loop
      vertex -8.67992 -7.09239 -25.5
      vertex -10.4821 -3.97083 -25.5
      vertex -8.98703 -8.98212 -25.5
    endloop
  endfacet
  facet normal 0 0 1
    outer loop
      vertex 1.20585 -7.39358 -25.5
      vertex -1.20585 -7.39358 -25.5
      vertex -1.0518 -9.3019 -25.5
    endloop
  endfacet
  facet normal 0 0 1
    outer loop
      vertex -2.2291 -5.77544 -25.5
      vertex 0.482146 -3.97083 -25.5
      vertex -1.41842 -3.74006 -25.5
    endloop
  endfacet
  facet normal 0 0 1
    outer loop
      vertex 0.482146 -3.97083 -25.5
      vertex -2.2291 -5.77544 -25.5
      vertex -1.20585 -7.39358 -25.5
    endloop
  endfacet
  facet normal 0 0 1
    outer loop
      vertex -3.88713 -4.81818 -25.5
      vertex -1.41842 -3.74006 -25.5
      vertex -2.99404 -2.65249 -25.5
    endloop
  endfacet
  facet normal -0 0 1
    outer loop
      vertex -6.11623 -0.957262 -25.5
      vertex -2.99404 -2.65249 -25.5
      vertex -3.88377 -0.957262 -25.5
    endloop
  endfacet
  facet normal 0 0 1
    outer loop
      vertex -1.41842 -3.74006 -25.5
      vertex -3.88713 -4.81818 -25.5
      vertex -2.2291 -5.77544 -25.5
    endloop
  endfacet
  facet normal 0 0 1
    outer loop
      vertex -3.88377 0.957262 -25.5
      vertex -6.11623 0.957262 -25.5
      vertex -3.88377 -0.957262 -25.5
    endloop
  endfacet
  facet normal 0 0 1
    outer loop
      vertex -6.11623 0.957262 -25.5
      vertex -3.88713 4.81818 -25.5
      vertex -5.8001 4.74109 -25.5
    endloop
  endfacet
  facet normal 0 0 1
    outer loop
      vertex -6.11623 -0.957262 -25.5
      vertex -3.88377 -0.957262 -25.5
      vertex -6.11623 0.957262 -25.5
    endloop
  endfacet
  facet normal 0 0 1
    outer loop
      vertex -2.99404 -2.65249 -25.5
      vertex -5.8001 -4.74109 -25.5
      vertex -3.88713 -4.81818 -25.5
    endloop
  endfacet
  facet normal 0 0 1
    outer loop
      vertex -5.8001 4.74109 -25.5
      vertex -7.00596 2.65249 -25.5
      vertex -6.11623 0.957262 -25.5
    endloop
  endfacet
  facet normal 0 0 1
    outer loop
      vertex -7.52978 5.56183 -25.5
      vertex -7.00596 2.65249 -25.5
      vertex -5.8001 4.74109 -25.5
    endloop
  endfacet
  facet normal 0 0 1
    outer loop
      vertex -7.52978 5.56183 -25.5
      vertex -8.58158 3.74006 -25.5
      vertex -7.00596 2.65249 -25.5
    endloop
  endfacet
  facet normal 0 0 1
    outer loop
      vertex -8.67992 7.09239 -25.5
      vertex -8.58158 3.74006 -25.5
      vertex -7.52978 5.56183 -25.5
    endloop
  endfacet
  facet normal 0 0 1
    outer loop
      vertex -10.4821 3.97083 -25.5
      vertex -8.67992 7.09239 -25.5
      vertex -8.98703 8.98212 -25.5
    endloop
  endfacet
  facet normal 0 0 1
    outer loop
      vertex -8.67992 7.09239 -25.5
      vertex -10.4821 3.97083 -25.5
      vertex -8.58158 3.74006 -25.5
    endloop
  endfacet
  facet normal 0 0 1
    outer loop
      vertex 1.20585 7.39358 -25.5
      vertex -1.20585 7.39358 -25.5
      vertex 0.482146 3.97083 -25.5
    endloop
  endfacet
  facet normal -0 0 1
    outer loop
      vertex -2.2291 5.77544 -25.5
      vertex 0.482146 3.97083 -25.5
      vertex -1.20585 7.39358 -25.5
    endloop
  endfacet
  facet normal 0 0 1
    outer loop
      vertex 0.482146 3.97083 -25.5
      vertex -2.2291 5.77544 -25.5
      vertex -1.41842 3.74006 -25.5
    endloop
  endfacet
  facet normal -0 0 1
    outer loop
      vertex -3.88713 4.81818 -25.5
      vertex -1.41842 3.74006 -25.5
      vertex -2.2291 5.77544 -25.5
    endloop
  endfacet
  facet normal 0 0 1
    outer loop
      vertex -1.41842 3.74006 -25.5
      vertex -3.88713 4.81818 -25.5
      vertex -2.99404 2.65249 -25.5
    endloop
  endfacet
  facet normal 0 0 1
    outer loop
      vertex -2.99404 2.65249 -25.5
      vertex -6.11623 0.957262 -25.5
      vertex -3.88377 0.957262 -25.5
    endloop
  endfacet
  facet normal 0 0 1
    outer loop
      vertex -6.11623 0.957262 -25.5
      vertex -2.99404 2.65249 -25.5
      vertex -3.88713 4.81818 -25.5
    endloop
  endfacet
  facet normal 0 0 1
    outer loop
      vertex 6.11623 -0.957262 -25.5
      vertex 3.88713 -4.81818 -25.5
      vertex 5.8001 -4.74109 -25.5
    endloop
  endfacet
  facet normal 0 0 1
    outer loop
      vertex 6.11623 -0.957262 -25.5
      vertex 3.54182 -1.85889 -25.5
      vertex 3.88713 -4.81818 -25.5
    endloop
  endfacet
  facet normal -0 0 1
    outer loop
      vertex 2.27226 -3.29193 -25.5
      vertex 3.88713 -4.81818 -25.5
      vertex 3.54182 -1.85889 -25.5
    endloop
  endfacet
  facet normal 0 0 1
    outer loop
      vertex 2.27226 -3.29193 -25.5
      vertex 2.2291 -5.77544 -25.5
      vertex 3.88713 -4.81818 -25.5
    endloop
  endfacet
  facet normal -0 0 1
    outer loop
      vertex 0.482146 -3.97083 -25.5
      vertex 2.2291 -5.77544 -25.5
      vertex 2.27226 -3.29193 -25.5
    endloop
  endfacet
  facet normal 0 0 1
    outer loop
      vertex -1.20585 -7.39358 -25.5
      vertex 1.20585 -7.39358 -25.5
      vertex 0.482146 -3.97083 -25.5
    endloop
  endfacet
  facet normal 0 0 1
    outer loop
      vertex 2.2291 -5.77544 -25.5
      vertex 0.482146 -3.97083 -25.5
      vertex 1.20585 -7.39358 -25.5
    endloop
  endfacet
  facet normal 0 0 1
    outer loop
      vertex 10.4821 -3.97083 -25.5
      vertex 8.67992 -7.09239 -25.5
      vertex 8.98703 -8.98212 -25.5
    endloop
  endfacet
  facet normal 0 0 1
    outer loop
      vertex 8.58158 -3.74006 -25.5
      vertex 8.67992 -7.09239 -25.5
      vertex 10.4821 -3.97083 -25.5
    endloop
  endfacet
  facet normal 0 0 1
    outer loop
      vertex 8.58158 -3.74006 -25.5
      vertex 7.52978 -5.56183 -25.5
      vertex 8.67992 -7.09239 -25.5
    endloop
  endfacet
  facet normal 0 0 1
    outer loop
      vertex 7.00596 -2.65249 -25.5
      vertex 7.52978 -5.56183 -25.5
      vertex 8.58158 -3.74006 -25.5
    endloop
  endfacet
  facet normal 0 0 1
    outer loop
      vertex 5.8001 -4.74109 -25.5
      vertex 7.00596 -2.65249 -25.5
      vertex 6.11623 -0.957262 -25.5
    endloop
  endfacet
  facet normal 0 0 1
    outer loop
      vertex 7.00596 -2.65249 -25.5
      vertex 5.8001 -4.74109 -25.5
      vertex 7.52978 -5.56183 -25.5
    endloop
  endfacet
  facet normal 0 -0 1
    outer loop
      vertex 4 0 -25.5
      vertex 6.11623 0.957262 -25.5
      vertex 3.54182 1.85889 -25.5
    endloop
  endfacet
  facet normal 0 0 1
    outer loop
      vertex 3.54182 -1.85889 -25.5
      vertex 6.11623 -0.957262 -25.5
      vertex 4 0 -25.5
    endloop
  endfacet
  facet normal 0 0 1
    outer loop
      vertex 3.54182 1.85889 -25.5
      vertex 5.8001 4.74109 -25.5
      vertex 3.88713 4.81818 -25.5
    endloop
  endfacet
  facet normal 0 0 1
    outer loop
      vertex 6.11623 0.957262 -25.5
      vertex 4 0 -25.5
      vertex 6.11623 -0.957262 -25.5
    endloop
  endfacet
  facet normal 0 0 1
    outer loop
      vertex 3.88713 4.81818 -25.5
      vertex 2.27226 3.29193 -25.5
      vertex 3.54182 1.85889 -25.5
    endloop
  endfacet
  facet normal 0 0 1
    outer loop
      vertex 2.2291 5.77544 -25.5
      vertex 2.27226 3.29193 -25.5
      vertex 3.88713 4.81818 -25.5
    endloop
  endfacet
  facet normal 0 0 1
    outer loop
      vertex 0.482146 3.97083 -25.5
      vertex 2.2291 5.77544 -25.5
      vertex 1.20585 7.39358 -25.5
    endloop
  endfacet
  facet normal 0 0 1
    outer loop
      vertex 2.2291 5.77544 -25.5
      vertex 0.482146 3.97083 -25.5
      vertex 2.27226 3.29193 -25.5
    endloop
  endfacet
  facet normal -0 0 1
    outer loop
      vertex -1.0518 9.3019 -25.5
      vertex 1.20585 7.39358 -25.5
      vertex 1.0518 9.3019 -25.5
    endloop
  endfacet
  facet normal -0 0 1
    outer loop
      vertex 13.5418 1.85889 -25.5
      vertex 92 0 -25.5
      vertex 46 79.6743 -25.5
    endloop
  endfacet
  facet normal 0 0 1
    outer loop
      vertex 13.5418 -1.85889 -25.5
      vertex 92 0 -25.5
      vertex 14 0 -25.5
    endloop
  endfacet
  facet normal 0 0 1
    outer loop
      vertex 92 0 -25.5
      vertex 13.5418 1.85889 -25.5
      vertex 14 0 -25.5
    endloop
  endfacet
  facet normal -0 0 1
    outer loop
      vertex 8.38076 10.7981 -25.5
      vertex 13.5418 1.85889 -25.5
      vertex 46 79.6743 -25.5
    endloop
  endfacet
  facet normal 0 0 1
    outer loop
      vertex 13.5418 1.85889 -25.5
      vertex 8.38076 10.7981 -25.5
      vertex 12.2723 3.29193 -25.5
    endloop
  endfacet
  facet normal 0 0 1
    outer loop
      vertex 12.2723 3.29193 -25.5
      vertex 8.98703 8.98212 -25.5
      vertex 10.4821 3.97083 -25.5
    endloop
  endfacet
  facet normal 0 0 1
    outer loop
      vertex 12.2723 3.29193 -25.5
      vertex 8.38076 10.7981 -25.5
      vertex 8.98703 8.98212 -25.5
    endloop
  endfacet
  facet normal 0 0 1
    outer loop
      vertex 46 79.6743 -25.5
      vertex 7 12.1244 -25.5
      vertex 8.38076 10.7981 -25.5
    endloop
  endfacet
  facet normal 0 0 1
    outer loop
      vertex 46 79.6743 -25.5
      vertex 5.16106 12.657 -25.5
      vertex 7 12.1244 -25.5
    endloop
  endfacet
  facet normal 0 0 1
    outer loop
      vertex -5.16106 12.657 -25.5
      vertex 5.16106 12.657 -25.5
      vertex 46 79.6743 -25.5
    endloop
  endfacet
  facet normal 0 0 1
    outer loop
      vertex 5.16106 12.657 -25.5
      vertex -5.16106 12.657 -25.5
      vertex 3.28523 12.2741 -25.5
    endloop
  endfacet
  facet normal 0 0 1
    outer loop
      vertex -1.20585 7.39358 -25.5
      vertex 1.20585 7.39358 -25.5
      vertex -1.0518 9.3019 -25.5
    endloop
  endfacet
  facet normal 0 0 1
    outer loop
      vertex 1.80223 11.0632 -25.5
      vertex -1.0518 9.3019 -25.5
      vertex 1.0518 9.3019 -25.5
    endloop
  endfacet
  facet normal 0 0 1
    outer loop
      vertex 3.28523 12.2741 -25.5
      vertex -3.28523 12.2741 -25.5
      vertex 1.80223 11.0632 -25.5
    endloop
  endfacet
  facet normal 0 0 1
    outer loop
      vertex 1.80223 11.0632 -25.5
      vertex -1.80223 11.0632 -25.5
      vertex -1.0518 9.3019 -25.5
    endloop
  endfacet
  facet normal 0 0 1
    outer loop
      vertex 1.80223 11.0632 -25.5
      vertex -3.28523 12.2741 -25.5
      vertex -1.80223 11.0632 -25.5
    endloop
  endfacet
  facet normal 0 0 1
    outer loop
      vertex 3.28523 12.2741 -25.5
      vertex -5.16106 12.657 -25.5
      vertex -3.28523 12.2741 -25.5
    endloop
  endfacet
  facet normal -0 0 1
    outer loop
      vertex -46 79.6743 -25.5
      vertex -5.16106 12.657 -25.5
      vertex 46 79.6743 -25.5
    endloop
  endfacet
  facet normal 0 0 1
    outer loop
      vertex -5.16106 12.657 -25.5
      vertex -46 79.6743 -25.5
      vertex -7 12.1244 -25.5
    endloop
  endfacet
  facet normal 0 0 1
    outer loop
      vertex -8.98703 8.98212 -25.5
      vertex -12.2723 3.29193 -25.5
      vertex -10.4821 3.97083 -25.5
    endloop
  endfacet
  facet normal 0 0 1
    outer loop
      vertex -8.38076 10.7981 -25.5
      vertex -12.2723 3.29193 -25.5
      vertex -8.98703 8.98212 -25.5
    endloop
  endfacet
  facet normal 0 0 1
    outer loop
      vertex -8.38076 10.7981 -25.5
      vertex -13.5418 1.85889 -25.5
      vertex -12.2723 3.29193 -25.5
    endloop
  endfacet
  facet normal 0 0 1
    outer loop
      vertex -92 0 -25.5
      vertex -13.5418 1.85889 -25.5
      vertex -46 79.6743 -25.5
    endloop
  endfacet
  facet normal 0 0 1
    outer loop
      vertex -8.38076 10.7981 -25.5
      vertex -46 79.6743 -25.5
      vertex -13.5418 1.85889 -25.5
    endloop
  endfacet
  facet normal 0 0 1
    outer loop
      vertex -7 12.1244 -25.5
      vertex -46 79.6743 -25.5
      vertex -8.38076 10.7981 -25.5
    endloop
  endfacet
  facet normal 0 0 1
    outer loop
      vertex 92 0 -25.5
      vertex 13.5418 -1.85889 -25.5
      vertex 46 -79.6743 -25.5
    endloop
  endfacet
  facet normal 0 0 1
    outer loop
      vertex 8.38076 -10.7981 -25.5
      vertex 13.5418 -1.85889 -25.5
      vertex 12.2723 -3.29193 -25.5
    endloop
  endfacet
  facet normal 0 0 1
    outer loop
      vertex 8.98703 -8.98212 -25.5
      vertex 12.2723 -3.29193 -25.5
      vertex 10.4821 -3.97083 -25.5
    endloop
  endfacet
  facet normal 0 0 1
    outer loop
      vertex 8.38076 -10.7981 -25.5
      vertex 12.2723 -3.29193 -25.5
      vertex 8.98703 -8.98212 -25.5
    endloop
  endfacet
  facet normal 0 0 1
    outer loop
      vertex 13.5418 -1.85889 -25.5
      vertex 8.38076 -10.7981 -25.5
      vertex 46 -79.6743 -25.5
    endloop
  endfacet
  facet normal -0 0 1
    outer loop
      vertex 7 -12.1244 -25.5
      vertex 46 -79.6743 -25.5
      vertex 8.38076 -10.7981 -25.5
    endloop
  endfacet
  facet normal -0 0 1
    outer loop
      vertex 5.16106 -12.657 -25.5
      vertex 46 -79.6743 -25.5
      vertex 7 -12.1244 -25.5
    endloop
  endfacet
  facet normal 0 0 1
    outer loop
      vertex -5.16106 -12.657 -25.5
      vertex 5.16106 -12.657 -25.5
      vertex 3.28523 -12.2741 -25.5
    endloop
  endfacet
  facet normal 0 0 1
    outer loop
      vertex -3.28523 -12.2741 -25.5
      vertex 3.28523 -12.2741 -25.5
      vertex 1.80223 -11.0632 -25.5
    endloop
  endfacet
  facet normal 0 0 1
    outer loop
      vertex 1.20585 -7.39358 -25.5
      vertex -1.0518 -9.3019 -25.5
      vertex 1.0518 -9.3019 -25.5
    endloop
  endfacet
  facet normal -0 0 1
    outer loop
      vertex -1.0518 -9.3019 -25.5
      vertex 1.80223 -11.0632 -25.5
      vertex 1.0518 -9.3019 -25.5
    endloop
  endfacet
  facet normal 0 0 1
    outer loop
      vertex -1.80223 -11.0632 -25.5
      vertex 1.80223 -11.0632 -25.5
      vertex -1.0518 -9.3019 -25.5
    endloop
  endfacet
  facet normal 0 0 1
    outer loop
      vertex -3.28523 -12.2741 -25.5
      vertex 1.80223 -11.0632 -25.5
      vertex -1.80223 -11.0632 -25.5
    endloop
  endfacet
  facet normal 0 0 1
    outer loop
      vertex -5.16106 -12.657 -25.5
      vertex 3.28523 -12.2741 -25.5
      vertex -3.28523 -12.2741 -25.5
    endloop
  endfacet
  facet normal 0 0 1
    outer loop
      vertex 5.16106 -12.657 -25.5
      vertex -5.16106 -12.657 -25.5
      vertex 46 -79.6743 -25.5
    endloop
  endfacet
  facet normal 0 0 1
    outer loop
      vertex -46 -79.6743 -25.5
      vertex -5.16106 -12.657 -25.5
      vertex -7 -12.1244 -25.5
    endloop
  endfacet
  facet normal 0 0 1
    outer loop
      vertex -46 -79.6743 -25.5
      vertex -7 -12.1244 -25.5
      vertex -8.38076 -10.7981 -25.5
    endloop
  endfacet
  facet normal 0 0 1
    outer loop
      vertex -12.2723 -3.29193 -25.5
      vertex -8.98703 -8.98212 -25.5
      vertex -10.4821 -3.97083 -25.5
    endloop
  endfacet
  facet normal 0 0 1
    outer loop
      vertex -12.2723 -3.29193 -25.5
      vertex -8.38076 -10.7981 -25.5
      vertex -8.98703 -8.98212 -25.5
    endloop
  endfacet
  facet normal 0 0 1
    outer loop
      vertex -13.5418 -1.85889 -25.5
      vertex -8.38076 -10.7981 -25.5
      vertex -12.2723 -3.29193 -25.5
    endloop
  endfacet
  facet normal 0 0 1
    outer loop
      vertex -13.5418 1.85889 -25.5
      vertex -92 0 -25.5
      vertex -14 0 -25.5
    endloop
  endfacet
  facet normal 0 0 1
    outer loop
      vertex -5.16106 -12.657 -25.5
      vertex -46 -79.6743 -25.5
      vertex 46 -79.6743 -25.5
    endloop
  endfacet
  facet normal 0 0 1
    outer loop
      vertex -13.5418 -1.85889 -25.5
      vertex -46 -79.6743 -25.5
      vertex -8.38076 -10.7981 -25.5
    endloop
  endfacet
  facet normal 0 0 1
    outer loop
      vertex -14 0 -25.5
      vertex -92 0 -25.5
      vertex -13.5418 -1.85889 -25.5
    endloop
  endfacet
  facet normal 0 0 1
    outer loop
      vertex -13.5418 -1.85889 -25.5
      vertex -92 0 -25.5
      vertex -46 -79.6743 -25.5
    endloop
  endfacet
  facet normal -0 0 1
    outer loop
      vertex 8.67992 7.09239 -25.5
      vertex 10.4821 3.97083 -25.5
      vertex 8.98703 8.98212 -25.5
    endloop
  endfacet
  facet normal 0 0 1
    outer loop
      vertex 8.67992 7.09239 -25.5
      vertex 8.58158 3.74006 -25.5
      vertex 10.4821 3.97083 -25.5
    endloop
  endfacet
  facet normal -0 0 1
    outer loop
      vertex 7.52978 5.56183 -25.5
      vertex 8.58158 3.74006 -25.5
      vertex 8.67992 7.09239 -25.5
    endloop
  endfacet
  facet normal 0 0 1
    outer loop
      vertex 7.52978 5.56183 -25.5
      vertex 7.00596 2.65249 -25.5
      vertex 8.58158 3.74006 -25.5
    endloop
  endfacet
  facet normal -0 0 1
    outer loop
      vertex 5.8001 4.74109 -25.5
      vertex 7.00596 2.65249 -25.5
      vertex 7.52978 5.56183 -25.5
    endloop
  endfacet
  facet normal 0 0 1
    outer loop
      vertex 7.00596 2.65249 -25.5
      vertex 3.54182 1.85889 -25.5
      vertex 6.11623 0.957262 -25.5
    endloop
  endfacet
  facet normal 0 0 1
    outer loop
      vertex 3.54182 1.85889 -25.5
      vertex 7.00596 2.65249 -25.5
      vertex 5.8001 4.74109 -25.5
    endloop
  endfacet
  facet normal 0.568064 -0.822984 0
    outer loop
      vertex 7.00596 2.65249 -27.5
      vertex 8.58158 3.74006 -25.5
      vertex 7.00596 2.65249 -25.5
    endloop
  endfacet
  facet normal 0.568064 -0.822984 0
    outer loop
      vertex 8.58158 3.74006 -25.5
      vertex 7.00596 2.65249 -27.5
      vertex 8.58158 3.74006 -27.5
    endloop
  endfacet
  facet normal -0.748527 -0.663104 0
    outer loop
      vertex 13.5418 1.85889 -27.5
      vertex 12.2723 3.29193 -25.5
      vertex 12.2723 3.29193 -27.5
    endloop
  endfacet
  facet normal -0.748527 -0.663104 0
    outer loop
      vertex 12.2723 3.29193 -25.5
      vertex 13.5418 1.85889 -27.5
      vertex 13.5418 1.85889 -25.5
    endloop
  endfacet
  facet normal -0.970939 -0.239328 0
    outer loop
      vertex 14 0 -27.5
      vertex 13.5418 1.85889 -25.5
      vertex 13.5418 1.85889 -27.5
    endloop
  endfacet
  facet normal -0.970939 -0.239328 0
    outer loop
      vertex 13.5418 1.85889 -25.5
      vertex 14 0 -27.5
      vertex 14 0 -25.5
    endloop
  endfacet
  facet normal 1 -0 0
    outer loop
      vertex 6.11623 -0.957262 -25.5
      vertex 6.11623 0.957262 -27.5
      vertex 6.11623 0.957262 -25.5
    endloop
  endfacet
  facet normal 1 0 0
    outer loop
      vertex 6.11623 0.957262 -27.5
      vertex 6.11623 -0.957262 -25.5
      vertex 6.11623 -0.957262 -27.5
    endloop
  endfacet
  facet normal 0.885455 -0.464726 0
    outer loop
      vertex 6.11623 0.957262 -25.5
      vertex 7.00596 2.65249 -27.5
      vertex 7.00596 2.65249 -25.5
    endloop
  endfacet
  facet normal 0.885455 -0.464726 0
    outer loop
      vertex 7.00596 2.65249 -27.5
      vertex 6.11623 0.957262 -25.5
      vertex 6.11623 0.957262 -27.5
    endloop
  endfacet
  facet normal -0.35459 -0.935022 0
    outer loop
      vertex 10.4821 3.97083 -27.5
      vertex 12.2723 3.29193 -25.5
      vertex 10.4821 3.97083 -25.5
    endloop
  endfacet
  facet normal -0.35459 -0.935022 -0
    outer loop
      vertex 12.2723 3.29193 -25.5
      vertex 10.4821 3.97083 -27.5
      vertex 12.2723 3.29193 -27.5
    endloop
  endfacet
  facet normal -0.970939 0.239328 0
    outer loop
      vertex 13.5418 -1.85889 -27.5
      vertex 14 0 -25.5
      vertex 14 0 -27.5
    endloop
  endfacet
  facet normal -0.970939 0.239328 0
    outer loop
      vertex 14 0 -25.5
      vertex 13.5418 -1.85889 -27.5
      vertex 13.5418 -1.85889 -25.5
    endloop
  endfacet
  facet normal 0.120539 0.992709 -0
    outer loop
      vertex 10.4821 -3.97083 -27.5
      vertex 8.58158 -3.74006 -25.5
      vertex 10.4821 -3.97083 -25.5
    endloop
  endfacet
  facet normal 0.120539 0.992709 0
    outer loop
      vertex 8.58158 -3.74006 -25.5
      vertex 10.4821 -3.97083 -27.5
      vertex 8.58158 -3.74006 -27.5
    endloop
  endfacet
  facet normal -0.748527 0.663104 0
    outer loop
      vertex 12.2723 -3.29193 -27.5
      vertex 13.5418 -1.85889 -25.5
      vertex 13.5418 -1.85889 -27.5
    endloop
  endfacet
  facet normal -0.748527 0.663104 0
    outer loop
      vertex 13.5418 -1.85889 -25.5
      vertex 12.2723 -3.29193 -27.5
      vertex 12.2723 -3.29193 -25.5
    endloop
  endfacet
  facet normal -0.35459 0.935022 0
    outer loop
      vertex 12.2723 -3.29193 -27.5
      vertex 10.4821 -3.97083 -25.5
      vertex 12.2723 -3.29193 -25.5
    endloop
  endfacet
  facet normal -0.35459 0.935022 0
    outer loop
      vertex 10.4821 -3.97083 -25.5
      vertex 12.2723 -3.29193 -27.5
      vertex 10.4821 -3.97083 -27.5
    endloop
  endfacet
  facet normal 0.120539 -0.992709 0
    outer loop
      vertex 8.58158 3.74006 -27.5
      vertex 10.4821 3.97083 -25.5
      vertex 8.58158 3.74006 -25.5
    endloop
  endfacet
  facet normal 0.120539 -0.992709 0
    outer loop
      vertex 10.4821 3.97083 -25.5
      vertex 8.58158 3.74006 -27.5
      vertex 10.4821 3.97083 -27.5
    endloop
  endfacet
  facet normal 0.568064 0.822984 -0
    outer loop
      vertex 8.58158 -3.74006 -27.5
      vertex 7.00596 -2.65249 -25.5
      vertex 8.58158 -3.74006 -25.5
    endloop
  endfacet
  facet normal 0.568064 0.822984 0
    outer loop
      vertex 7.00596 -2.65249 -25.5
      vertex 8.58158 -3.74006 -27.5
      vertex 7.00596 -2.65249 -27.5
    endloop
  endfacet
  facet normal 0.885455 0.464726 0
    outer loop
      vertex 7.00596 -2.65249 -25.5
      vertex 6.11623 -0.957262 -27.5
      vertex 6.11623 -0.957262 -25.5
    endloop
  endfacet
  facet normal 0.885455 0.464726 0
    outer loop
      vertex 6.11623 -0.957262 -27.5
      vertex 7.00596 -2.65249 -25.5
      vertex 7.00596 -2.65249 -27.5
    endloop
  endfacet
  facet normal 0.919978 -0.391971 0
    outer loop
      vertex 1.0518 9.3019 -25.5
      vertex 1.80223 11.0632 -27.5
      vertex 1.80223 11.0632 -25.5
    endloop
  endfacet
  facet normal 0.919978 -0.391971 0
    outer loop
      vertex 1.80223 11.0632 -27.5
      vertex 1.0518 9.3019 -25.5
      vertex 1.0518 9.3019 -27.5
    endloop
  endfacet
  facet normal 0.199999 -0.979796 0
    outer loop
      vertex 3.28523 12.2741 -27.5
      vertex 5.16106 12.657 -25.5
      vertex 3.28523 12.2741 -25.5
    endloop
  endfacet
  facet normal 0.199999 -0.979796 0
    outer loop
      vertex 5.16106 12.657 -25.5
      vertex 3.28523 12.2741 -27.5
      vertex 5.16106 12.657 -27.5
    endloop
  endfacet
  facet normal -0.278191 -0.960526 0
    outer loop
      vertex 5.16106 12.657 -27.5
      vertex 7 12.1244 -25.5
      vertex 5.16106 12.657 -25.5
    endloop
  endfacet
  facet normal -0.278191 -0.960526 -0
    outer loop
      vertex 7 12.1244 -25.5
      vertex 5.16106 12.657 -27.5
      vertex 7 12.1244 -27.5
    endloop
  endfacet
  facet normal 0.632467 -0.774588 0
    outer loop
      vertex 1.80223 11.0632 -27.5
      vertex 3.28523 12.2741 -25.5
      vertex 1.80223 11.0632 -25.5
    endloop
  endfacet
  facet normal 0.632467 -0.774588 0
    outer loop
      vertex 3.28523 12.2741 -25.5
      vertex 1.80223 11.0632 -27.5
      vertex 3.28523 12.2741 -27.5
    endloop
  endfacet
  facet normal -0.98705 0.160411 0
    outer loop
      vertex 8.67992 7.09239 -27.5
      vertex 8.98703 8.98212 -25.5
      vertex 8.98703 8.98212 -27.5
    endloop
  endfacet
  facet normal -0.98705 0.160411 0
    outer loop
      vertex 8.98703 8.98212 -25.5
      vertex 8.67992 7.09239 -27.5
      vertex 8.67992 7.09239 -25.5
    endloop
  endfacet
  facet normal 0.996758 0.0804637 0
    outer loop
      vertex 1.20585 7.39358 -25.5
      vertex 1.0518 9.3019 -27.5
      vertex 1.0518 9.3019 -25.5
    endloop
  endfacet
  facet normal 0.996758 0.0804637 0
    outer loop
      vertex 1.0518 9.3019 -27.5
      vertex 1.20585 7.39358 -25.5
      vertex 1.20585 7.39358 -27.5
    endloop
  endfacet
  facet normal -0.428691 0.903451 0
    outer loop
      vertex 7.52978 5.56183 -27.5
      vertex 5.8001 4.74109 -25.5
      vertex 7.52978 5.56183 -25.5
    endloop
  endfacet
  facet normal -0.428691 0.903451 0
    outer loop
      vertex 5.8001 4.74109 -25.5
      vertex 7.52978 5.56183 -27.5
      vertex 5.8001 4.74109 -27.5
    endloop
  endfacet
  facet normal -0.799443 0.600742 0
    outer loop
      vertex 7.52978 5.56183 -27.5
      vertex 8.67992 7.09239 -25.5
      vertex 8.67992 7.09239 -27.5
    endloop
  endfacet
  facet normal -0.799443 0.600742 0
    outer loop
      vertex 8.67992 7.09239 -25.5
      vertex 7.52978 5.56183 -27.5
      vertex 7.52978 5.56183 -25.5
    endloop
  endfacet
  facet normal 0.84519 0.534466 0
    outer loop
      vertex 2.2291 5.77544 -25.5
      vertex 1.20585 7.39358 -27.5
      vertex 1.20585 7.39358 -25.5
    endloop
  endfacet
  facet normal 0.84519 0.534466 0
    outer loop
      vertex 1.20585 7.39358 -27.5
      vertex 2.2291 5.77544 -25.5
      vertex 2.2291 5.77544 -27.5
    endloop
  endfacet
  facet normal 0.0402659 0.999189 -0
    outer loop
      vertex 5.8001 4.74109 -27.5
      vertex 3.88713 4.81818 -25.5
      vertex 5.8001 4.74109 -25.5
    endloop
  endfacet
  facet normal 0.0402659 0.999189 0
    outer loop
      vertex 3.88713 4.81818 -25.5
      vertex 5.8001 4.74109 -27.5
      vertex 3.88713 4.81818 -27.5
    endloop
  endfacet
  facet normal -0.948535 -0.316671 0
    outer loop
      vertex 8.98703 8.98212 -27.5
      vertex 8.38076 10.7981 -25.5
      vertex 8.38076 10.7981 -27.5
    endloop
  endfacet
  facet normal -0.948535 -0.316671 0
    outer loop
      vertex 8.38076 10.7981 -25.5
      vertex 8.98703 8.98212 -27.5
      vertex 8.98703 8.98212 -25.5
    endloop
  endfacet
  facet normal 0.499998 0.866026 -0
    outer loop
      vertex 3.88713 4.81818 -27.5
      vertex 2.2291 5.77544 -25.5
      vertex 3.88713 4.81818 -25.5
    endloop
  endfacet
  facet normal 0.499998 0.866026 0
    outer loop
      vertex 2.2291 5.77544 -25.5
      vertex 3.88713 4.81818 -27.5
      vertex 2.2291 5.77544 -27.5
    endloop
  endfacet
  facet normal -0.692741 -0.721186 0
    outer loop
      vertex 7 12.1244 -27.5
      vertex 8.38076 10.7981 -25.5
      vertex 7 12.1244 -25.5
    endloop
  endfacet
  facet normal -0.692741 -0.721186 -0
    outer loop
      vertex 8.38076 10.7981 -25.5
      vertex 7 12.1244 -27.5
      vertex 8.38076 10.7981 -27.5
    endloop
  endfacet
  facet normal 0.948535 -0.316671 0
    outer loop
      vertex -8.98703 8.98212 -25.5
      vertex -8.38076 10.7981 -27.5
      vertex -8.38076 10.7981 -25.5
    endloop
  endfacet
  facet normal 0.948535 -0.316671 0
    outer loop
      vertex -8.38076 10.7981 -27.5
      vertex -8.98703 8.98212 -25.5
      vertex -8.98703 8.98212 -27.5
    endloop
  endfacet
  facet normal 0.692741 -0.721186 0
    outer loop
      vertex -8.38076 10.7981 -27.5
      vertex -7 12.1244 -25.5
      vertex -8.38076 10.7981 -25.5
    endloop
  endfacet
  facet normal 0.692741 -0.721186 0
    outer loop
      vertex -7 12.1244 -25.5
      vertex -8.38076 10.7981 -27.5
      vertex -7 12.1244 -27.5
    endloop
  endfacet
  facet normal -0.0402659 0.999189 0
    outer loop
      vertex -3.88713 4.81818 -27.5
      vertex -5.8001 4.74109 -25.5
      vertex -3.88713 4.81818 -25.5
    endloop
  endfacet
  facet normal -0.0402659 0.999189 0
    outer loop
      vertex -5.8001 4.74109 -25.5
      vertex -3.88713 4.81818 -27.5
      vertex -5.8001 4.74109 -27.5
    endloop
  endfacet
  facet normal 0.799443 0.600742 0
    outer loop
      vertex -7.52978 5.56183 -25.5
      vertex -8.67992 7.09239 -27.5
      vertex -8.67992 7.09239 -25.5
    endloop
  endfacet
  facet normal 0.799443 0.600742 0
    outer loop
      vertex -8.67992 7.09239 -27.5
      vertex -7.52978 5.56183 -25.5
      vertex -7.52978 5.56183 -27.5
    endloop
  endfacet
  facet normal -0.499998 0.866026 0
    outer loop
      vertex -2.2291 5.77544 -27.5
      vertex -3.88713 4.81818 -25.5
      vertex -2.2291 5.77544 -25.5
    endloop
  endfacet
  facet normal -0.499998 0.866026 0
    outer loop
      vertex -3.88713 4.81818 -25.5
      vertex -2.2291 5.77544 -27.5
      vertex -3.88713 4.81818 -27.5
    endloop
  endfacet
  facet normal -0.919978 -0.391971 0
    outer loop
      vertex -1.0518 9.3019 -27.5
      vertex -1.80223 11.0632 -25.5
      vertex -1.80223 11.0632 -27.5
    endloop
  endfacet
  facet normal -0.919978 -0.391971 0
    outer loop
      vertex -1.80223 11.0632 -25.5
      vertex -1.0518 9.3019 -27.5
      vertex -1.0518 9.3019 -25.5
    endloop
  endfacet
  facet normal 0.428691 0.903451 -0
    outer loop
      vertex -5.8001 4.74109 -27.5
      vertex -7.52978 5.56183 -25.5
      vertex -5.8001 4.74109 -25.5
    endloop
  endfacet
  facet normal 0.428691 0.903451 0
    outer loop
      vertex -7.52978 5.56183 -25.5
      vertex -5.8001 4.74109 -27.5
      vertex -7.52978 5.56183 -27.5
    endloop
  endfacet
  facet normal -0.199999 -0.979796 0
    outer loop
      vertex -5.16106 12.657 -27.5
      vertex -3.28523 12.2741 -25.5
      vertex -5.16106 12.657 -25.5
    endloop
  endfacet
  facet normal -0.199999 -0.979796 -0
    outer loop
      vertex -3.28523 12.2741 -25.5
      vertex -5.16106 12.657 -27.5
      vertex -3.28523 12.2741 -27.5
    endloop
  endfacet
  facet normal -0.632467 -0.774588 0
    outer loop
      vertex -3.28523 12.2741 -27.5
      vertex -1.80223 11.0632 -25.5
      vertex -3.28523 12.2741 -25.5
    endloop
  endfacet
  facet normal -0.632467 -0.774588 -0
    outer loop
      vertex -1.80223 11.0632 -25.5
      vertex -3.28523 12.2741 -27.5
      vertex -1.80223 11.0632 -27.5
    endloop
  endfacet
  facet normal 0.278191 -0.960526 0
    outer loop
      vertex -7 12.1244 -27.5
      vertex -5.16106 12.657 -25.5
      vertex -7 12.1244 -25.5
    endloop
  endfacet
  facet normal 0.278191 -0.960526 0
    outer loop
      vertex -5.16106 12.657 -25.5
      vertex -7 12.1244 -27.5
      vertex -5.16106 12.657 -27.5
    endloop
  endfacet
  facet normal 0.98705 0.160411 0
    outer loop
      vertex -8.67992 7.09239 -25.5
      vertex -8.98703 8.98212 -27.5
      vertex -8.98703 8.98212 -25.5
    endloop
  endfacet
  facet normal 0.98705 0.160411 0
    outer loop
      vertex -8.98703 8.98212 -27.5
      vertex -8.67992 7.09239 -25.5
      vertex -8.67992 7.09239 -27.5
    endloop
  endfacet
  facet normal -0.996758 0.0804637 0
    outer loop
      vertex -1.20585 7.39358 -27.5
      vertex -1.0518 9.3019 -25.5
      vertex -1.0518 9.3019 -27.5
    endloop
  endfacet
  facet normal -0.996758 0.0804637 0
    outer loop
      vertex -1.0518 9.3019 -25.5
      vertex -1.20585 7.39358 -27.5
      vertex -1.20585 7.39358 -25.5
    endloop
  endfacet
  facet normal -0.84519 0.534466 0
    outer loop
      vertex -2.2291 5.77544 -27.5
      vertex -1.20585 7.39358 -25.5
      vertex -1.20585 7.39358 -27.5
    endloop
  endfacet
  facet normal -0.84519 0.534466 0
    outer loop
      vertex -1.20585 7.39358 -25.5
      vertex -2.2291 5.77544 -27.5
      vertex -2.2291 5.77544 -25.5
    endloop
  endfacet
  facet normal -0.568064 0.822984 0
    outer loop
      vertex -7.00596 -2.65249 -27.5
      vertex -8.58158 -3.74006 -25.5
      vertex -7.00596 -2.65249 -25.5
    endloop
  endfacet
  facet normal -0.568064 0.822984 0
    outer loop
      vertex -8.58158 -3.74006 -25.5
      vertex -7.00596 -2.65249 -27.5
      vertex -8.58158 -3.74006 -27.5
    endloop
  endfacet
  facet normal -1 0 0
    outer loop
      vertex -6.11623 -0.957262 -27.5
      vertex -6.11623 0.957262 -25.5
      vertex -6.11623 0.957262 -27.5
    endloop
  endfacet
  facet normal -1 -0 0
    outer loop
      vertex -6.11623 0.957262 -25.5
      vertex -6.11623 -0.957262 -27.5
      vertex -6.11623 -0.957262 -25.5
    endloop
  endfacet
  facet normal 0.970939 0.239328 0
    outer loop
      vertex -13.5418 -1.85889 -25.5
      vertex -14 0 -27.5
      vertex -14 0 -25.5
    endloop
  endfacet
  facet normal 0.970939 0.239328 0
    outer loop
      vertex -14 0 -27.5
      vertex -13.5418 -1.85889 -25.5
      vertex -13.5418 -1.85889 -27.5
    endloop
  endfacet
  facet normal -0.120539 0.992709 0
    outer loop
      vertex -8.58158 -3.74006 -27.5
      vertex -10.4821 -3.97083 -25.5
      vertex -8.58158 -3.74006 -25.5
    endloop
  endfacet
  facet normal -0.120539 0.992709 0
    outer loop
      vertex -10.4821 -3.97083 -25.5
      vertex -8.58158 -3.74006 -27.5
      vertex -10.4821 -3.97083 -27.5
    endloop
  endfacet
  facet normal 0.748527 0.663104 0
    outer loop
      vertex -12.2723 -3.29193 -25.5
      vertex -13.5418 -1.85889 -27.5
      vertex -13.5418 -1.85889 -25.5
    endloop
  endfacet
  facet normal 0.748527 0.663104 0
    outer loop
      vertex -13.5418 -1.85889 -27.5
      vertex -12.2723 -3.29193 -25.5
      vertex -12.2723 -3.29193 -27.5
    endloop
  endfacet
  facet normal -0.120539 -0.992709 0
    outer loop
      vertex -10.4821 3.97083 -27.5
      vertex -8.58158 3.74006 -25.5
      vertex -10.4821 3.97083 -25.5
    endloop
  endfacet
  facet normal -0.120539 -0.992709 -0
    outer loop
      vertex -8.58158 3.74006 -25.5
      vertex -10.4821 3.97083 -27.5
      vertex -8.58158 3.74006 -27.5
    endloop
  endfacet
  facet normal -0.885455 -0.464726 0
    outer loop
      vertex -6.11623 0.957262 -27.5
      vertex -7.00596 2.65249 -25.5
      vertex -7.00596 2.65249 -27.5
    endloop
  endfacet
  facet normal -0.885455 -0.464726 0
    outer loop
      vertex -7.00596 2.65249 -25.5
      vertex -6.11623 0.957262 -27.5
      vertex -6.11623 0.957262 -25.5
    endloop
  endfacet
  facet normal 0.748527 -0.663104 0
    outer loop
      vertex -13.5418 1.85889 -25.5
      vertex -12.2723 3.29193 -27.5
      vertex -12.2723 3.29193 -25.5
    endloop
  endfacet
  facet normal 0.748527 -0.663104 0
    outer loop
      vertex -12.2723 3.29193 -27.5
      vertex -13.5418 1.85889 -25.5
      vertex -13.5418 1.85889 -27.5
    endloop
  endfacet
  facet normal -0.885455 0.464726 0
    outer loop
      vertex -7.00596 -2.65249 -27.5
      vertex -6.11623 -0.957262 -25.5
      vertex -6.11623 -0.957262 -27.5
    endloop
  endfacet
  facet normal -0.885455 0.464726 0
    outer loop
      vertex -6.11623 -0.957262 -25.5
      vertex -7.00596 -2.65249 -27.5
      vertex -7.00596 -2.65249 -25.5
    endloop
  endfacet
  facet normal 0.35459 -0.935022 0
    outer loop
      vertex -12.2723 3.29193 -27.5
      vertex -10.4821 3.97083 -25.5
      vertex -12.2723 3.29193 -25.5
    endloop
  endfacet
  facet normal 0.35459 -0.935022 0
    outer loop
      vertex -10.4821 3.97083 -25.5
      vertex -12.2723 3.29193 -27.5
      vertex -10.4821 3.97083 -27.5
    endloop
  endfacet
  facet normal 0.970939 -0.239328 0
    outer loop
      vertex -14 0 -25.5
      vertex -13.5418 1.85889 -27.5
      vertex -13.5418 1.85889 -25.5
    endloop
  endfacet
  facet normal 0.970939 -0.239328 0
    outer loop
      vertex -13.5418 1.85889 -27.5
      vertex -14 0 -25.5
      vertex -14 0 -27.5
    endloop
  endfacet
  facet normal 0.35459 0.935022 -0
    outer loop
      vertex -10.4821 -3.97083 -27.5
      vertex -12.2723 -3.29193 -25.5
      vertex -10.4821 -3.97083 -25.5
    endloop
  endfacet
  facet normal 0.35459 0.935022 0
    outer loop
      vertex -12.2723 -3.29193 -25.5
      vertex -10.4821 -3.97083 -27.5
      vertex -12.2723 -3.29193 -27.5
    endloop
  endfacet
  facet normal -0.568064 -0.822984 0
    outer loop
      vertex -8.58158 3.74006 -27.5
      vertex -7.00596 2.65249 -25.5
      vertex -8.58158 3.74006 -25.5
    endloop
  endfacet
  facet normal -0.568064 -0.822984 -0
    outer loop
      vertex -7.00596 2.65249 -25.5
      vertex -8.58158 3.74006 -27.5
      vertex -7.00596 2.65249 -27.5
    endloop
  endfacet
  facet normal -0.919978 0.391971 0
    outer loop
      vertex -1.80223 -11.0632 -27.5
      vertex -1.0518 -9.3019 -25.5
      vertex -1.0518 -9.3019 -27.5
    endloop
  endfacet
  facet normal -0.919978 0.391971 0
    outer loop
      vertex -1.0518 -9.3019 -25.5
      vertex -1.80223 -11.0632 -27.5
      vertex -1.80223 -11.0632 -25.5
    endloop
  endfacet
  facet normal -0.84519 -0.534466 0
    outer loop
      vertex -1.20585 -7.39358 -27.5
      vertex -2.2291 -5.77544 -25.5
      vertex -2.2291 -5.77544 -27.5
    endloop
  endfacet
  facet normal -0.84519 -0.534466 0
    outer loop
      vertex -2.2291 -5.77544 -25.5
      vertex -1.20585 -7.39358 -27.5
      vertex -1.20585 -7.39358 -25.5
    endloop
  endfacet
  facet normal 0.278191 0.960526 -0
    outer loop
      vertex -5.16106 -12.657 -27.5
      vertex -7 -12.1244 -25.5
      vertex -5.16106 -12.657 -25.5
    endloop
  endfacet
  facet normal 0.278191 0.960526 0
    outer loop
      vertex -7 -12.1244 -25.5
      vertex -5.16106 -12.657 -27.5
      vertex -7 -12.1244 -27.5
    endloop
  endfacet
  facet normal -0.996758 -0.0804637 0
    outer loop
      vertex -1.0518 -9.3019 -27.5
      vertex -1.20585 -7.39358 -25.5
      vertex -1.20585 -7.39358 -27.5
    endloop
  endfacet
  facet normal -0.996758 -0.0804637 0
    outer loop
      vertex -1.20585 -7.39358 -25.5
      vertex -1.0518 -9.3019 -27.5
      vertex -1.0518 -9.3019 -25.5
    endloop
  endfacet
  facet normal 0.799443 -0.600742 0
    outer loop
      vertex -8.67992 -7.09239 -25.5
      vertex -7.52978 -5.56183 -27.5
      vertex -7.52978 -5.56183 -25.5
    endloop
  endfacet
  facet normal 0.799443 -0.600742 0
    outer loop
      vertex -7.52978 -5.56183 -27.5
      vertex -8.67992 -7.09239 -25.5
      vertex -8.67992 -7.09239 -27.5
    endloop
  endfacet
  facet normal 0.948535 0.316671 0
    outer loop
      vertex -8.38076 -10.7981 -25.5
      vertex -8.98703 -8.98212 -27.5
      vertex -8.98703 -8.98212 -25.5
    endloop
  endfacet
  facet normal 0.948535 0.316671 0
    outer loop
      vertex -8.98703 -8.98212 -27.5
      vertex -8.38076 -10.7981 -25.5
      vertex -8.38076 -10.7981 -27.5
    endloop
  endfacet
  facet normal 0.692741 0.721186 -0
    outer loop
      vertex -7 -12.1244 -27.5
      vertex -8.38076 -10.7981 -25.5
      vertex -7 -12.1244 -25.5
    endloop
  endfacet
  facet normal 0.692741 0.721186 0
    outer loop
      vertex -8.38076 -10.7981 -25.5
      vertex -7 -12.1244 -27.5
      vertex -8.38076 -10.7981 -27.5
    endloop
  endfacet
  facet normal -0.199999 0.979796 0
    outer loop
      vertex -3.28523 -12.2741 -27.5
      vertex -5.16106 -12.657 -25.5
      vertex -3.28523 -12.2741 -25.5
    endloop
  endfacet
  facet normal -0.199999 0.979796 0
    outer loop
      vertex -5.16106 -12.657 -25.5
      vertex -3.28523 -12.2741 -27.5
      vertex -5.16106 -12.657 -27.5
    endloop
  endfacet
  facet normal 0.98705 -0.160411 0
    outer loop
      vertex -8.98703 -8.98212 -25.5
      vertex -8.67992 -7.09239 -27.5
      vertex -8.67992 -7.09239 -25.5
    endloop
  endfacet
  facet normal 0.98705 -0.160411 0
    outer loop
      vertex -8.67992 -7.09239 -27.5
      vertex -8.98703 -8.98212 -25.5
      vertex -8.98703 -8.98212 -27.5
    endloop
  endfacet
  facet normal -0.0402659 -0.999189 0
    outer loop
      vertex -5.8001 -4.74109 -27.5
      vertex -3.88713 -4.81818 -25.5
      vertex -5.8001 -4.74109 -25.5
    endloop
  endfacet
  facet normal -0.0402659 -0.999189 -0
    outer loop
      vertex -3.88713 -4.81818 -25.5
      vertex -5.8001 -4.74109 -27.5
      vertex -3.88713 -4.81818 -27.5
    endloop
  endfacet
  facet normal -0.499998 -0.866026 0
    outer loop
      vertex -3.88713 -4.81818 -27.5
      vertex -2.2291 -5.77544 -25.5
      vertex -3.88713 -4.81818 -25.5
    endloop
  endfacet
  facet normal -0.499998 -0.866026 -0
    outer loop
      vertex -2.2291 -5.77544 -25.5
      vertex -3.88713 -4.81818 -27.5
      vertex -2.2291 -5.77544 -27.5
    endloop
  endfacet
  facet normal 0.428691 -0.903451 0
    outer loop
      vertex -7.52978 -5.56183 -27.5
      vertex -5.8001 -4.74109 -25.5
      vertex -7.52978 -5.56183 -25.5
    endloop
  endfacet
  facet normal 0.428691 -0.903451 0
    outer loop
      vertex -5.8001 -4.74109 -25.5
      vertex -7.52978 -5.56183 -27.5
      vertex -5.8001 -4.74109 -27.5
    endloop
  endfacet
  facet normal -0.632467 0.774588 0
    outer loop
      vertex -1.80223 -11.0632 -27.5
      vertex -3.28523 -12.2741 -25.5
      vertex -1.80223 -11.0632 -25.5
    endloop
  endfacet
  facet normal -0.632467 0.774588 0
    outer loop
      vertex -3.28523 -12.2741 -25.5
      vertex -1.80223 -11.0632 -27.5
      vertex -3.28523 -12.2741 -27.5
    endloop
  endfacet
  facet normal -0.692741 0.721186 0
    outer loop
      vertex 8.38076 -10.7981 -27.5
      vertex 7 -12.1244 -25.5
      vertex 8.38076 -10.7981 -25.5
    endloop
  endfacet
  facet normal -0.692741 0.721186 0
    outer loop
      vertex 7 -12.1244 -25.5
      vertex 8.38076 -10.7981 -27.5
      vertex 7 -12.1244 -27.5
    endloop
  endfacet
  facet normal -0.278191 0.960526 0
    outer loop
      vertex 7 -12.1244 -27.5
      vertex 5.16106 -12.657 -25.5
      vertex 7 -12.1244 -25.5
    endloop
  endfacet
  facet normal -0.278191 0.960526 0
    outer loop
      vertex 5.16106 -12.657 -25.5
      vertex 7 -12.1244 -27.5
      vertex 5.16106 -12.657 -27.5
    endloop
  endfacet
  facet normal -0.98705 -0.160411 0
    outer loop
      vertex 8.98703 -8.98212 -27.5
      vertex 8.67992 -7.09239 -25.5
      vertex 8.67992 -7.09239 -27.5
    endloop
  endfacet
  facet normal -0.98705 -0.160411 0
    outer loop
      vertex 8.67992 -7.09239 -25.5
      vertex 8.98703 -8.98212 -27.5
      vertex 8.98703 -8.98212 -25.5
    endloop
  endfacet
  facet normal -0.948535 0.316671 0
    outer loop
      vertex 8.38076 -10.7981 -27.5
      vertex 8.98703 -8.98212 -25.5
      vertex 8.98703 -8.98212 -27.5
    endloop
  endfacet
  facet normal -0.948535 0.316671 0
    outer loop
      vertex 8.98703 -8.98212 -25.5
      vertex 8.38076 -10.7981 -27.5
      vertex 8.38076 -10.7981 -25.5
    endloop
  endfacet
  facet normal 0.919978 0.391971 0
    outer loop
      vertex 1.80223 -11.0632 -25.5
      vertex 1.0518 -9.3019 -27.5
      vertex 1.0518 -9.3019 -25.5
    endloop
  endfacet
  facet normal 0.919978 0.391971 0
    outer loop
      vertex 1.0518 -9.3019 -27.5
      vertex 1.80223 -11.0632 -25.5
      vertex 1.80223 -11.0632 -27.5
    endloop
  endfacet
  facet normal 0.499998 -0.866026 0
    outer loop
      vertex 2.2291 -5.77544 -27.5
      vertex 3.88713 -4.81818 -25.5
      vertex 2.2291 -5.77544 -25.5
    endloop
  endfacet
  facet normal 0.499998 -0.866026 0
    outer loop
      vertex 3.88713 -4.81818 -25.5
      vertex 2.2291 -5.77544 -27.5
      vertex 3.88713 -4.81818 -27.5
    endloop
  endfacet
  facet normal -0.428691 -0.903451 0
    outer loop
      vertex 5.8001 -4.74109 -27.5
      vertex 7.52978 -5.56183 -25.5
      vertex 5.8001 -4.74109 -25.5
    endloop
  endfacet
  facet normal -0.428691 -0.903451 -0
    outer loop
      vertex 7.52978 -5.56183 -25.5
      vertex 5.8001 -4.74109 -27.5
      vertex 7.52978 -5.56183 -27.5
    endloop
  endfacet
  facet normal 0.199999 0.979796 -0
    outer loop
      vertex 5.16106 -12.657 -27.5
      vertex 3.28523 -12.2741 -25.5
      vertex 5.16106 -12.657 -25.5
    endloop
  endfacet
  facet normal 0.199999 0.979796 0
    outer loop
      vertex 3.28523 -12.2741 -25.5
      vertex 5.16106 -12.657 -27.5
      vertex 3.28523 -12.2741 -27.5
    endloop
  endfacet
  facet normal 0.632467 0.774588 -0
    outer loop
      vertex 3.28523 -12.2741 -27.5
      vertex 1.80223 -11.0632 -25.5
      vertex 3.28523 -12.2741 -25.5
    endloop
  endfacet
  facet normal 0.632467 0.774588 0
    outer loop
      vertex 1.80223 -11.0632 -25.5
      vertex 3.28523 -12.2741 -27.5
      vertex 1.80223 -11.0632 -27.5
    endloop
  endfacet
  facet normal -0.799443 -0.600742 0
    outer loop
      vertex 8.67992 -7.09239 -27.5
      vertex 7.52978 -5.56183 -25.5
      vertex 7.52978 -5.56183 -27.5
    endloop
  endfacet
  facet normal -0.799443 -0.600742 0
    outer loop
      vertex 7.52978 -5.56183 -25.5
      vertex 8.67992 -7.09239 -27.5
      vertex 8.67992 -7.09239 -25.5
    endloop
  endfacet
  facet normal 0.0402659 -0.999189 0
    outer loop
      vertex 3.88713 -4.81818 -27.5
      vertex 5.8001 -4.74109 -25.5
      vertex 3.88713 -4.81818 -25.5
    endloop
  endfacet
  facet normal 0.0402659 -0.999189 0
    outer loop
      vertex 5.8001 -4.74109 -25.5
      vertex 3.88713 -4.81818 -27.5
      vertex 5.8001 -4.74109 -27.5
    endloop
  endfacet
  facet normal 0.996758 -0.0804637 0
    outer loop
      vertex 1.0518 -9.3019 -25.5
      vertex 1.20585 -7.39358 -27.5
      vertex 1.20585 -7.39358 -25.5
    endloop
  endfacet
  facet normal 0.996758 -0.0804637 0
    outer loop
      vertex 1.20585 -7.39358 -27.5
      vertex 1.0518 -9.3019 -25.5
      vertex 1.0518 -9.3019 -27.5
    endloop
  endfacet
  facet normal 0.84519 -0.534466 0
    outer loop
      vertex 1.20585 -7.39358 -25.5
      vertex 2.2291 -5.77544 -27.5
      vertex 2.2291 -5.77544 -25.5
    endloop
  endfacet
  facet normal 0.84519 -0.534466 0
    outer loop
      vertex 2.2291 -5.77544 -27.5
      vertex 1.20585 -7.39358 -25.5
      vertex 1.20585 -7.39358 -27.5
    endloop
  endfacet
  facet normal 0.568064 -0.822984 0
    outer loop
      vertex -2.99404 2.65249 -27.5
      vertex -1.41842 3.74006 -25.5
      vertex -2.99404 2.65249 -25.5
    endloop
  endfacet
  facet normal 0.568064 -0.822984 0
    outer loop
      vertex -1.41842 3.74006 -25.5
      vertex -2.99404 2.65249 -27.5
      vertex -1.41842 3.74006 -27.5
    endloop
  endfacet
  facet normal -0.748511 -0.663122 0
    outer loop
      vertex 3.54182 1.85889 -27.5
      vertex 2.27226 3.29193 -25.5
      vertex 2.27226 3.29193 -27.5
    endloop
  endfacet
  facet normal -0.748511 -0.663122 0
    outer loop
      vertex 2.27226 3.29193 -25.5
      vertex 3.54182 1.85889 -27.5
      vertex 3.54182 1.85889 -25.5
    endloop
  endfacet
  facet normal -0.970941 -0.239318 0
    outer loop
      vertex 4 0 -27.5
      vertex 3.54182 1.85889 -25.5
      vertex 3.54182 1.85889 -27.5
    endloop
  endfacet
  facet normal -0.970941 -0.239318 0
    outer loop
      vertex 3.54182 1.85889 -25.5
      vertex 4 0 -27.5
      vertex 4 0 -25.5
    endloop
  endfacet
  facet normal 1 -0 0
    outer loop
      vertex -3.88377 -0.957262 -25.5
      vertex -3.88377 0.957262 -27.5
      vertex -3.88377 0.957262 -25.5
    endloop
  endfacet
  facet normal 1 0 0
    outer loop
      vertex -3.88377 0.957262 -27.5
      vertex -3.88377 -0.957262 -25.5
      vertex -3.88377 -0.957262 -27.5
    endloop
  endfacet
  facet normal 0.885455 -0.464726 0
    outer loop
      vertex -3.88377 0.957262 -25.5
      vertex -2.99404 2.65249 -27.5
      vertex -2.99404 2.65249 -25.5
    endloop
  endfacet
  facet normal 0.885455 -0.464726 0
    outer loop
      vertex -2.99404 2.65249 -27.5
      vertex -3.88377 0.957262 -25.5
      vertex -3.88377 0.957262 -27.5
    endloop
  endfacet
  facet normal -0.354605 -0.935016 0
    outer loop
      vertex 0.482146 3.97083 -27.5
      vertex 2.27226 3.29193 -25.5
      vertex 0.482146 3.97083 -25.5
    endloop
  endfacet
  facet normal -0.354605 -0.935016 -0
    outer loop
      vertex 2.27226 3.29193 -25.5
      vertex 0.482146 3.97083 -27.5
      vertex 2.27226 3.29193 -27.5
    endloop
  endfacet
  facet normal -0.970941 0.239318 0
    outer loop
      vertex 3.54182 -1.85889 -27.5
      vertex 4 0 -25.5
      vertex 4 0 -27.5
    endloop
  endfacet
  facet normal -0.970941 0.239318 0
    outer loop
      vertex 4 0 -25.5
      vertex 3.54182 -1.85889 -27.5
      vertex 3.54182 -1.85889 -25.5
    endloop
  endfacet
  facet normal 0.120536 0.992709 -0
    outer loop
      vertex 0.482146 -3.97083 -27.5
      vertex -1.41842 -3.74006 -25.5
      vertex 0.482146 -3.97083 -25.5
    endloop
  endfacet
  facet normal 0.120536 0.992709 0
    outer loop
      vertex -1.41842 -3.74006 -25.5
      vertex 0.482146 -3.97083 -27.5
      vertex -1.41842 -3.74006 -27.5
    endloop
  endfacet
  facet normal -0.748511 0.663122 0
    outer loop
      vertex 2.27226 -3.29193 -27.5
      vertex 3.54182 -1.85889 -25.5
      vertex 3.54182 -1.85889 -27.5
    endloop
  endfacet
  facet normal -0.748511 0.663122 0
    outer loop
      vertex 3.54182 -1.85889 -25.5
      vertex 2.27226 -3.29193 -27.5
      vertex 2.27226 -3.29193 -25.5
    endloop
  endfacet
  facet normal -0.354605 0.935016 0
    outer loop
      vertex 2.27226 -3.29193 -27.5
      vertex 0.482146 -3.97083 -25.5
      vertex 2.27226 -3.29193 -25.5
    endloop
  endfacet
  facet normal -0.354605 0.935016 0
    outer loop
      vertex 0.482146 -3.97083 -25.5
      vertex 2.27226 -3.29193 -27.5
      vertex 0.482146 -3.97083 -27.5
    endloop
  endfacet
  facet normal 0.120536 -0.992709 0
    outer loop
      vertex -1.41842 3.74006 -27.5
      vertex 0.482146 3.97083 -25.5
      vertex -1.41842 3.74006 -25.5
    endloop
  endfacet
  facet normal 0.120536 -0.992709 0
    outer loop
      vertex 0.482146 3.97083 -25.5
      vertex -1.41842 3.74006 -27.5
      vertex 0.482146 3.97083 -27.5
    endloop
  endfacet
  facet normal 0.568064 0.822984 -0
    outer loop
      vertex -1.41842 -3.74006 -27.5
      vertex -2.99404 -2.65249 -25.5
      vertex -1.41842 -3.74006 -25.5
    endloop
  endfacet
  facet normal 0.568064 0.822984 0
    outer loop
      vertex -2.99404 -2.65249 -25.5
      vertex -1.41842 -3.74006 -27.5
      vertex -2.99404 -2.65249 -27.5
    endloop
  endfacet
  facet normal 0.885455 0.464726 0
    outer loop
      vertex -2.99404 -2.65249 -25.5
      vertex -3.88377 -0.957262 -27.5
      vertex -3.88377 -0.957262 -25.5
    endloop
  endfacet
  facet normal 0.885455 0.464726 0
    outer loop
      vertex -3.88377 -0.957262 -27.5
      vertex -2.99404 -2.65249 -25.5
      vertex -2.99404 -2.65249 -27.5
    endloop
  endfacet
endsolid OpenSCAD_Model
