solid OpenSCAD_Model
  facet normal 1 -0 0
    outer loop
      vertex 50 -50 25
      vertex 50 50 -25
      vertex 50 50 25
    endloop
  endfacet
  facet normal 1 0 0
    outer loop
      vertex 50 50 -25
      vertex 50 -50 25
      vertex 50 -50 -25
    endloop
  endfacet
  facet normal 0 0 1
    outer loop
      vertex 50 50 25
      vertex 49 49 25
      vertex 50 -50 25
    endloop
  endfacet
  facet normal 0 0 1
    outer loop
      vertex 50 50 25
      vertex -49 49 25
      vertex 49 49 25
    endloop
  endfacet
  facet normal 0 0 1
    outer loop
      vertex -49 49 25
      vertex -50 50 25
      vertex -49 -49 25
    endloop
  endfacet
  facet normal -0 0 1
    outer loop
      vertex -50 50 25
      vertex -49 49 25
      vertex 50 50 25
    endloop
  endfacet
  facet normal -0 0 1
    outer loop
      vertex 49 -49 25
      vertex 50 -50 25
      vertex 49 49 25
    endloop
  endfacet
  facet normal -0 0 1
    outer loop
      vertex -49 -49 25
      vertex 50 -50 25
      vertex 49 -49 25
    endloop
  endfacet
  facet normal 0 0 1
    outer loop
      vertex -49 -49 25
      vertex -50 -50 25
      vertex 50 -50 25
    endloop
  endfacet
  facet normal 0 0 1
    outer loop
      vertex -50 -50 25
      vertex -49 -49 25
      vertex -50 50 25
    endloop
  endfacet
  facet normal 0 0 -1
    outer loop
      vertex -50 -50 -25
      vertex 50 50 -25
      vertex 50 -50 -25
    endloop
  endfacet
  facet normal -0 0 -1
    outer loop
      vertex 50 50 -25
      vertex -50 -50 -25
      vertex -50 50 -25
    endloop
  endfacet
  facet normal -1 0 0
    outer loop
      vertex -50 -50 -25
      vertex -50 50 25
      vertex -50 50 -25
    endloop
  endfacet
  facet normal -1 -0 0
    outer loop
      vertex -50 50 25
      vertex -50 -50 -25
      vertex -50 -50 25
    endloop
  endfacet
  facet normal 0 1 -0
    outer loop
      vertex 50 50 -25
      vertex -50 50 25
      vertex 50 50 25
    endloop
  endfacet
  facet normal 0 1 0
    outer loop
      vertex -50 50 25
      vertex 50 50 -25
      vertex -50 50 -25
    endloop
  endfacet
  facet normal 0 -1 0
    outer loop
      vertex -50 -50 -25
      vertex 50 -50 25
      vertex -50 -50 25
    endloop
  endfacet
  facet normal 0 -1 -0
    outer loop
      vertex 50 -50 25
      vertex -50 -50 -25
      vertex 50 -50 -25
    endloop
  endfacet
  facet normal -1 0 0
    outer loop
      vertex 49 -49 -24
      vertex 49 49 25
      vertex 49 49 -24
    endloop
  endfacet
  facet normal -1 -0 0
    outer loop
      vertex 49 49 25
      vertex 49 -49 -24
      vertex 49 -49 25
    endloop
  endfacet
  facet normal -0 0 1
    outer loop
      vertex -49 49 -24
      vertex 49 -49 -24
      vertex 49 49 -24
    endloop
  endfacet
  facet normal 0 0 1
    outer loop
      vertex 49 -49 -24
      vertex -49 49 -24
      vertex -49 -49 -24
    endloop
  endfacet
  facet normal 1 -0 0
    outer loop
      vertex -49 -49 25
      vertex -49 49 -24
      vertex -49 49 25
    endloop
  endfacet
  facet normal 1 0 0
    outer loop
      vertex -49 49 -24
      vertex -49 -49 25
      vertex -49 -49 -24
    endloop
  endfacet
  facet normal 0 -1 0
    outer loop
      vertex -49 49 -24
      vertex 49 49 25
      vertex -49 49 25
    endloop
  endfacet
  facet normal 0 -1 -0
    outer loop
      vertex 49 49 25
      vertex -49 49 -24
      vertex 49 49 -24
    endloop
  endfacet
  facet normal 0 1 -0
    outer loop
      vertex 49 -49 -24
      vertex -49 -49 25
      vertex 49 -49 25
    endloop
  endfacet
  facet normal 0 1 0
    outer loop
      vertex -49 -49 25
      vertex 49 -49 -24
      vertex -49 -49 -24
    endloop
  endfacet
endsolid OpenSCAD_Model
